<svg width="60" height="80" viewBox="0 0 60 80" fill="none" xmlns="http://www.w3.org/2000/svg">
<ellipse cx="30.017" cy="72.9488" rx="24.4731" ry="6.06211" fill="#111927"/>
<mask id="mask0_735_100" style="mask-type:alpha" maskUnits="userSpaceOnUse" x="0" y="0" width="60" height="59">
<circle cx="30.0162" cy="29.8297" r="29.025" fill="#FFD112"/>
</mask>
<g mask="url(#mask0_735_100)">
<circle cx="30.0152" cy="29.8299" r="31.6011" fill="url(#paint0_linear_735_100)"/>
<rect x="-4.59082" y="51.2119" width="79.8454" height="10.3226" transform="rotate(-45 -4.59082 51.2119)" fill="#FFF0A6"/>
<rect x="7.00293" y="56.4504" width="87.2533" height="5.34352" transform="rotate(-45 7.00293 56.4504)" fill="#FFF0A6"/>
</g>
<circle cx="30.0165" cy="29.8302" r="23.3573" fill="url(#paint1_linear_735_100)"/>
<circle cx="30.0166" cy="29.83" r="19.4072" fill="url(#paint2_linear_735_100)"/>
<circle cx="30.0166" cy="29.83" r="17.9072" stroke="#FFE878" stroke-opacity="0.8" stroke-width="3"/>
<path d="M26.8266 33.4412C26.8266 33.1619 26.7836 32.9112 26.6977 32.6892C26.6189 32.46 26.4685 32.2524 26.2465 32.0662C26.0245 31.8728 25.713 31.683 25.3119 31.4968C24.9109 31.3106 24.3917 31.1173 23.7543 30.9167C23.0453 30.6876 22.3722 30.4298 21.7348 30.1433C21.1046 29.8569 20.546 29.5238 20.059 29.1443C19.5792 28.7576 19.1996 28.31 18.9203 27.8015C18.6482 27.2931 18.5121 26.7022 18.5121 26.0291C18.5121 25.3774 18.6554 24.7865 18.9418 24.2566C19.2283 23.7195 19.6293 23.2611 20.1449 22.8816C20.6606 22.4949 21.2693 22.1977 21.9711 21.99C22.6801 21.7823 23.4571 21.6785 24.3022 21.6785C25.4552 21.6785 26.4613 21.8861 27.3207 22.3015C28.1801 22.7169 28.8461 23.2862 29.3188 24.0095C29.7986 24.7328 30.0385 25.56 30.0385 26.491H26.8373C26.8373 26.0326 26.7406 25.6316 26.5473 25.2878C26.3611 24.9369 26.0746 24.6612 25.6879 24.4607C25.3084 24.2602 24.8285 24.1599 24.2485 24.1599C23.6899 24.1599 23.2244 24.2458 22.852 24.4177C22.4796 24.5824 22.2003 24.808 22.0141 25.0945C21.8279 25.3738 21.7348 25.6889 21.7348 26.0398C21.7348 26.3048 21.7992 26.5447 21.9281 26.7595C22.0642 26.9744 22.2647 27.1749 22.5297 27.3611C22.7947 27.5473 23.1205 27.7227 23.5072 27.8875C23.894 28.0522 24.3416 28.2133 24.85 28.3708C25.7022 28.6287 26.4506 28.9187 27.0951 29.241C27.7468 29.5632 28.2911 29.9249 28.7279 30.3259C29.1648 30.727 29.4942 31.1817 29.7162 31.6902C29.9382 32.1986 30.0492 32.7751 30.0492 33.4197C30.0492 34.1 29.9168 34.7087 29.6518 35.2458C29.3868 35.783 29.0037 36.2377 28.5024 36.6101C28.0011 36.9825 27.4031 37.2654 26.7084 37.4587C26.0138 37.6521 25.2367 37.7488 24.3774 37.7488C23.6039 37.7488 22.8412 37.6485 22.0893 37.448C21.3373 37.2403 20.6534 36.9288 20.0375 36.5134C19.4288 36.0981 18.9418 35.5681 18.5766 34.9236C18.2113 34.2791 18.0287 33.5164 18.0287 32.6355H21.2621C21.2621 33.1225 21.3373 33.5343 21.4877 33.8708C21.6381 34.2074 21.8494 34.4796 22.1215 34.6873C22.4008 34.8949 22.7302 35.0453 23.1098 35.1384C23.4965 35.2315 23.919 35.2781 24.3774 35.2781C24.936 35.2781 25.3943 35.1993 25.7524 35.0417C26.1176 34.8842 26.3862 34.6658 26.558 34.3865C26.7371 34.1072 26.8266 33.7921 26.8266 33.4412ZM42.2953 35.0203V37.5339H34.4213V35.0203H42.2953ZM35.4633 21.8933V37.5339H32.2406V21.8933H35.4633Z" fill="#EC8E02"/>
<defs>
<linearGradient id="paint0_linear_735_100" x1="30.0152" y1="-1.77124" x2="30.0152" y2="61.431" gradientUnits="userSpaceOnUse">
<stop stop-color="#FFDC4E"/>
<stop offset="1" stop-color="#FFD129"/>
</linearGradient>
<linearGradient id="paint1_linear_735_100" x1="30.0165" y1="6.4729" x2="30.0165" y2="53.1875" gradientUnits="userSpaceOnUse">
<stop stop-color="#EB8D00"/>
<stop offset="1" stop-color="#FFAA2A"/>
</linearGradient>
<linearGradient id="paint2_linear_735_100" x1="30.0166" y1="10.4229" x2="30.0166" y2="49.2372" gradientUnits="userSpaceOnUse">
<stop stop-color="#FFDD51"/>
<stop offset="1" stop-color="#FFCE22"/>
</linearGradient>
</defs>
</svg>
