<svg width="286" height="286" viewBox="0 0 286 286" fill="none" xmlns="http://www.w3.org/2000/svg">
<circle cx="143.133" cy="143.014" r="139.918" stroke="url(#paint0_linear_617_98)" stroke-width="5"/>
<mask id="path-2-outside-1_617_98" maskUnits="userSpaceOnUse" x="38.165" y="44.8357" width="209" height="172" fill="black">
<rect fill="white" x="38.165" y="44.8357" width="209" height="172"/>
<path fill-rule="evenodd" clip-rule="evenodd" d="M115.631 69.4786C117.44 65.2097 122.976 57.4541 132.422 54.2639C133.876 53.7729 135.423 53.39 137.063 53.1446C138.104 52.9888 139.184 52.8884 140.301 52.851C140.608 52.8408 140.912 52.8357 141.215 52.8357L141.217 52.8357C143.002 52.8357 144.702 53.0118 146.314 53.33C147.445 53.5532 148.534 53.8465 149.578 54.1979C151.193 54.7412 152.703 55.4236 154.105 56.2018C160.475 59.7359 164.631 65.2447 166.329 68.6635L164.916 74.4233L164.837 74.4207C164.966 74.6009 165.088 74.7864 165.205 74.9768L166.655 73.9343C168.883 74.4053 173.274 77.249 173.013 84.8563C173.006 85.0486 172.999 85.2409 172.99 85.4334L172.988 85.4891C172.877 88.0149 172.62 90.5477 172.149 92.8511C172.179 92.8543 172.209 92.8577 172.24 92.8611L172.279 92.8655L172.344 92.8731C174.701 93.1511 177.198 93.879 179.41 95.2719C179.83 95.1371 180.272 95.0287 180.736 94.9515L180.939 96.1705C180.867 96.1825 180.795 96.1953 180.725 96.2091C182.137 97.3459 183.378 98.81 184.315 100.669C185.014 102.055 185.476 103.5 185.72 104.995C186.198 105.245 186.659 105.542 187.094 105.894L186.317 106.855C186.179 106.743 186.038 106.638 185.894 106.539C185.924 107.01 185.933 107.487 185.924 107.967C186.384 108.186 186.788 108.434 187.086 108.711C188.304 109.841 188.318 111.645 188.173 112.406L188.15 112.444C191.646 114.36 198.108 117.984 199.313 118.981C200.573 120.024 200.744 123.111 200.671 124.523C201.595 125.429 203.584 127.479 204.149 128.436C204.714 129.392 205.036 131.261 205.127 132.076C205.39 132.076 205.773 132.154 206.195 132.366L207.572 131.968C207.992 132.463 208.685 133.463 209.37 134.828L209.817 134.689L210 135.278L209.642 135.39C210.188 136.566 210.706 137.967 211.049 139.521C211.488 141.507 211.936 143.816 212.309 145.84C212.637 147.627 212.907 149.191 213.06 150.117C213.011 150.118 212.96 150.119 212.909 150.119C212.546 150.121 212.117 150.104 211.639 150.061L210.289 152.562C210.366 152.738 210.452 152.924 210.54 153.117C210.969 154.053 211.466 155.138 211.43 155.931C211.387 156.887 212.535 160.242 213.115 161.8C213.685 162.035 214.614 162.502 215.547 163.139C216.481 163.776 217.418 164.582 218.005 165.495C219.179 167.32 218.748 171.182 218.385 172.885L220.178 174.678C220.178 175.193 220.031 176.027 219.567 176.706C219.286 177.116 218.89 177.469 218.342 177.662C218.743 178.073 219.051 178.522 219.255 178.916C219.491 180.242 219.577 181.524 219.55 182.743C219.598 182.789 219.646 182.836 219.693 182.884L219.542 183.032C219.406 186.76 218.231 189.879 217.14 191.85L238.273 203.749L206.295 203.889L239.102 204.292L238.626 207.552L47.9257 208.558L47.165 205.515L49.0126 203.857L71.1825 186.089L84.2354 185.962L81.0532 180.434C80.9693 180.436 80.885 180.437 80.8005 180.437C77.8109 180.437 75.1662 178.961 73.5559 176.697C72.6317 177.201 71.448 177.438 70.0957 176.906C67.1209 175.735 65.9406 169.707 65.4549 167.226C65.3994 166.942 65.353 166.705 65.314 166.527C65.2662 166.308 65.2475 166.05 65.2614 165.763L65.1553 165.651C65.1929 165.615 65.2339 165.578 65.2783 165.539C65.3626 164.709 65.7009 163.686 66.3635 162.722L65.6012 162.747L64.1296 162.918C64.3339 166.547 65.0833 172.299 67.6506 175.71C66.9623 176.906 64.912 178.753 62.2168 176.58C60.0598 174.84 59.3366 171.151 59.2452 168.522L59.2321 168.535L58.7889 168.105C58.9015 167.989 59.0517 167.853 59.2368 167.704C59.242 167.372 59.2579 167.068 59.2824 166.799C59.4236 165.245 59.7667 163.802 61.0509 162.671C61.0265 161.755 61.3988 160.662 62.0436 159.534L61.9621 159.601C63.1923 157.479 65.4 155.122 67.9817 153.611C68.02 153.589 68.0583 153.567 68.0967 153.545C68.8855 153.093 69.7522 152.694 70.6717 152.362L70.2044 151.801L71.1655 148.35C70.6141 148.306 70.0405 148.226 69.4438 148.106L72.9986 134.564L72.4438 134.38L72.6383 133.794L73.1558 133.965L74.0083 130.718L75.906 131.329L75.9099 131.316L77.214 130.609C77.214 129.196 77.7466 125.904 79.8766 124.034C80.0396 122.549 81.0069 119.111 83.5716 117.242C86.1364 115.373 91.342 113.239 93.6242 112.406L93.9131 112.616C94.1157 112.539 94.3041 112.469 94.476 112.406L96.0796 113.57L97.1645 112.193C96.7321 110.172 96.5595 108.272 96.5826 106.549L95.7345 105.727C95.998 105.455 96.3093 105.204 96.6604 104.978C96.8541 102.752 97.3845 100.903 98.0804 99.582C98.7568 98.2981 99.5805 97.1931 100.543 96.2759C100.522 96.2769 100.502 96.2781 100.482 96.2795C100.462 96.281 100.442 96.2826 100.423 96.2845L100.301 95.0548C100.742 95.0111 101.29 95.0493 101.893 95.1762C103.97 93.7381 106.546 93.004 109.564 93.0365C109.079 91.0617 108.782 88.9553 108.697 86.8801C108.595 84.3595 108.808 81.8849 109.383 79.7485C110.774 74.5755 115.034 73.4996 116.99 73.6083L117.046 74.3209C117.383 73.8111 117.768 73.3272 118.206 72.877L117.316 72.8475L115.631 69.4786ZM210.848 178.831C211.391 178.871 211.928 178.909 212.454 178.947C212.73 181.211 212.858 184.914 212.144 188.857L210.728 188.009C210.764 187.843 210.799 187.674 210.832 187.502C211.224 185.477 211.468 183.225 211.287 181.173L211.457 180.954C211.388 180.901 211.319 180.85 211.249 180.8C211.17 180.112 211.039 179.45 210.848 178.831ZM203.822 178.311C203.903 179.904 203.961 182.825 203.94 184.798L202.561 184.812C202.565 184.766 202.569 184.721 202.573 184.676C202.724 182.884 202.809 180.922 202.699 179.112L202.881 178.898C202.812 178.84 202.743 178.783 202.673 178.728C202.66 178.557 202.645 178.387 202.628 178.22C203.019 178.25 203.418 178.28 203.822 178.311ZM194.223 177.623C194.229 177.573 194.234 177.524 194.24 177.475C194.022 177.423 193.706 177.333 193.32 177.215C193.235 177.856 193.147 178.545 193.062 179.243C193.096 179.262 193.129 179.281 193.163 179.3L193.026 179.539C192.771 181.639 192.548 183.771 192.521 184.909L193.514 184.9C193.656 182.941 193.959 180.018 194.205 177.79L194.153 177.648C194.176 177.64 194.199 177.631 194.223 177.623ZM187.225 170.362C188.4 169.319 190.011 168.199 192.058 167.311L190.673 164.625L188.808 164.421C188.82 165.009 188.807 165.618 188.771 166.255C188.766 166.337 188.76 166.418 188.753 166.498L189.298 167.09C189.046 167.322 188.79 167.527 188.533 167.707C188.266 168.681 187.802 169.568 187.225 170.362ZM180.251 185.029C179.907 183.449 179.828 181.426 180.457 179.133C181.113 176.744 182.43 174.878 183.754 173.546C182.927 174.08 182.134 174.48 181.499 174.739C179.687 177.306 176.957 179.187 175.349 180.003C176.915 181.033 177.518 182.983 177.621 185.054L180.251 185.029ZM107.48 102.543C107.494 102.644 107.507 102.747 107.518 102.851L108.747 102.725C108.711 102.377 108.658 102.043 108.589 101.722C109.794 101.009 111.202 100.653 112.496 100.51C112.692 101.132 112.926 101.807 113.198 102.515L106.082 104.557C106.415 103.743 106.9 103.08 107.48 102.543ZM175.464 104.873C175.423 104.891 175.384 104.91 175.345 104.929L168.109 102.798C168.317 102.097 168.471 101.396 168.557 100.703C168.699 100.57 168.838 100.43 168.972 100.282C170.338 100.507 171.822 100.97 173.061 101.812C172.952 102.206 172.893 102.568 172.884 102.879L174.119 102.915C174.121 102.852 174.126 102.785 174.135 102.713C174.702 103.302 175.164 104.015 175.464 104.873ZM71.8678 162.544C72.1705 164.231 72.5412 166.074 72.8864 167.512C73.1746 166.949 73.5212 166.42 73.9182 165.935C73.8037 164.65 73.795 163.495 73.8808 162.479L71.8678 162.544ZM87.9063 178.8L87.3208 177.588C88.788 176.003 89.6848 173.883 89.6848 171.553C89.6848 170.634 89.5452 169.748 89.2862 168.914C89.3083 168.833 89.3285 168.749 89.3467 168.664C91.1066 168.217 93.0877 166.935 92.755 163.973C92.6213 162.783 92.1825 161.689 91.5873 160.718L94.0259 159.936C93.2133 162.628 92.8981 165.376 93.1776 168.19L93.0269 169.037C93.1087 169.052 93.1951 169.066 93.2857 169.08C93.5203 170.715 93.9573 172.372 94.6153 174.053L94.334 174.637C94.5068 174.72 94.715 174.8 94.9514 174.869C95.2354 175.526 95.5534 176.187 95.9064 176.851C96.8845 177.866 99.5363 179.536 102.318 178.101C102.3 178.073 102.281 178.044 102.262 178.014C103.255 178.801 104.177 179.699 104.601 180.546C104.185 181.638 103.594 183.802 103.646 185.773L91.3312 185.893L88.0158 179.027C88.0407 178.982 88.0646 178.936 88.0875 178.889L87.9063 178.8Z"/>
</mask>
<path fill-rule="evenodd" clip-rule="evenodd" d="M115.631 69.4786C117.44 65.2097 122.976 57.4541 132.422 54.2639C133.876 53.7729 135.423 53.39 137.063 53.1446C138.104 52.9888 139.184 52.8884 140.301 52.851C140.608 52.8408 140.912 52.8357 141.215 52.8357L141.217 52.8357C143.002 52.8357 144.702 53.0118 146.314 53.33C147.445 53.5532 148.534 53.8465 149.578 54.1979C151.193 54.7412 152.703 55.4236 154.105 56.2018C160.475 59.7359 164.631 65.2447 166.329 68.6635L164.916 74.4233L164.837 74.4207C164.966 74.6009 165.088 74.7864 165.205 74.9768L166.655 73.9343C168.883 74.4053 173.274 77.249 173.013 84.8563C173.006 85.0486 172.999 85.2409 172.99 85.4334L172.988 85.4891C172.877 88.0149 172.62 90.5477 172.149 92.8511C172.179 92.8543 172.209 92.8577 172.24 92.8611L172.279 92.8655L172.344 92.8731C174.701 93.1511 177.198 93.879 179.41 95.2719C179.83 95.1371 180.272 95.0287 180.736 94.9515L180.939 96.1705C180.867 96.1825 180.795 96.1953 180.725 96.2091C182.137 97.3459 183.378 98.81 184.315 100.669C185.014 102.055 185.476 103.5 185.72 104.995C186.198 105.245 186.659 105.542 187.094 105.894L186.317 106.855C186.179 106.743 186.038 106.638 185.894 106.539C185.924 107.01 185.933 107.487 185.924 107.967C186.384 108.186 186.788 108.434 187.086 108.711C188.304 109.841 188.318 111.645 188.173 112.406L188.15 112.444C191.646 114.36 198.108 117.984 199.313 118.981C200.573 120.024 200.744 123.111 200.671 124.523C201.595 125.429 203.584 127.479 204.149 128.436C204.714 129.392 205.036 131.261 205.127 132.076C205.39 132.076 205.773 132.154 206.195 132.366L207.572 131.968C207.992 132.463 208.685 133.463 209.37 134.828L209.817 134.689L210 135.278L209.642 135.39C210.188 136.566 210.706 137.967 211.049 139.521C211.488 141.507 211.936 143.816 212.309 145.84C212.637 147.627 212.907 149.191 213.06 150.117C213.011 150.118 212.96 150.119 212.909 150.119C212.546 150.121 212.117 150.104 211.639 150.061L210.289 152.562C210.366 152.738 210.452 152.924 210.54 153.117C210.969 154.053 211.466 155.138 211.43 155.931C211.387 156.887 212.535 160.242 213.115 161.8C213.685 162.035 214.614 162.502 215.547 163.139C216.481 163.776 217.418 164.582 218.005 165.495C219.179 167.32 218.748 171.182 218.385 172.885L220.178 174.678C220.178 175.193 220.031 176.027 219.567 176.706C219.286 177.116 218.89 177.469 218.342 177.662C218.743 178.073 219.051 178.522 219.255 178.916C219.491 180.242 219.577 181.524 219.55 182.743C219.598 182.789 219.646 182.836 219.693 182.884L219.542 183.032C219.406 186.76 218.231 189.879 217.14 191.85L238.273 203.749L206.295 203.889L239.102 204.292L238.626 207.552L47.9257 208.558L47.165 205.515L49.0126 203.857L71.1825 186.089L84.2354 185.962L81.0532 180.434C80.9693 180.436 80.885 180.437 80.8005 180.437C77.8109 180.437 75.1662 178.961 73.5559 176.697C72.6317 177.201 71.448 177.438 70.0957 176.906C67.1209 175.735 65.9406 169.707 65.4549 167.226C65.3994 166.942 65.353 166.705 65.314 166.527C65.2662 166.308 65.2475 166.05 65.2614 165.763L65.1553 165.651C65.1929 165.615 65.2339 165.578 65.2783 165.539C65.3626 164.709 65.7009 163.686 66.3635 162.722L65.6012 162.747L64.1296 162.918C64.3339 166.547 65.0833 172.299 67.6506 175.71C66.9623 176.906 64.912 178.753 62.2168 176.58C60.0598 174.84 59.3366 171.151 59.2452 168.522L59.2321 168.535L58.7889 168.105C58.9015 167.989 59.0517 167.853 59.2368 167.704C59.242 167.372 59.2579 167.068 59.2824 166.799C59.4236 165.245 59.7667 163.802 61.0509 162.671C61.0265 161.755 61.3988 160.662 62.0436 159.534L61.9621 159.601C63.1923 157.479 65.4 155.122 67.9817 153.611C68.02 153.589 68.0583 153.567 68.0967 153.545C68.8855 153.093 69.7522 152.694 70.6717 152.362L70.2044 151.801L71.1655 148.35C70.6141 148.306 70.0405 148.226 69.4438 148.106L72.9986 134.564L72.4438 134.38L72.6383 133.794L73.1558 133.965L74.0083 130.718L75.906 131.329L75.9099 131.316L77.214 130.609C77.214 129.196 77.7466 125.904 79.8766 124.034C80.0396 122.549 81.0069 119.111 83.5716 117.242C86.1364 115.373 91.342 113.239 93.6242 112.406L93.9131 112.616C94.1157 112.539 94.3041 112.469 94.476 112.406L96.0796 113.57L97.1645 112.193C96.7321 110.172 96.5595 108.272 96.5826 106.549L95.7345 105.727C95.998 105.455 96.3093 105.204 96.6604 104.978C96.8541 102.752 97.3845 100.903 98.0804 99.582C98.7568 98.2981 99.5805 97.1931 100.543 96.2759C100.522 96.2769 100.502 96.2781 100.482 96.2795C100.462 96.281 100.442 96.2826 100.423 96.2845L100.301 95.0548C100.742 95.0111 101.29 95.0493 101.893 95.1762C103.97 93.7381 106.546 93.004 109.564 93.0365C109.079 91.0617 108.782 88.9553 108.697 86.8801C108.595 84.3595 108.808 81.8849 109.383 79.7485C110.774 74.5755 115.034 73.4996 116.99 73.6083L117.046 74.3209C117.383 73.8111 117.768 73.3272 118.206 72.877L117.316 72.8475L115.631 69.4786ZM210.848 178.831C211.391 178.871 211.928 178.909 212.454 178.947C212.73 181.211 212.858 184.914 212.144 188.857L210.728 188.009C210.764 187.843 210.799 187.674 210.832 187.502C211.224 185.477 211.468 183.225 211.287 181.173L211.457 180.954C211.388 180.901 211.319 180.85 211.249 180.8C211.17 180.112 211.039 179.45 210.848 178.831ZM203.822 178.311C203.903 179.904 203.961 182.825 203.94 184.798L202.561 184.812C202.565 184.766 202.569 184.721 202.573 184.676C202.724 182.884 202.809 180.922 202.699 179.112L202.881 178.898C202.812 178.84 202.743 178.783 202.673 178.728C202.66 178.557 202.645 178.387 202.628 178.22C203.019 178.25 203.418 178.28 203.822 178.311ZM194.223 177.623C194.229 177.573 194.234 177.524 194.24 177.475C194.022 177.423 193.706 177.333 193.32 177.215C193.235 177.856 193.147 178.545 193.062 179.243C193.096 179.262 193.129 179.281 193.163 179.3L193.026 179.539C192.771 181.639 192.548 183.771 192.521 184.909L193.514 184.9C193.656 182.941 193.959 180.018 194.205 177.79L194.153 177.648C194.176 177.64 194.199 177.631 194.223 177.623ZM187.225 170.362C188.4 169.319 190.011 168.199 192.058 167.311L190.673 164.625L188.808 164.421C188.82 165.009 188.807 165.618 188.771 166.255C188.766 166.337 188.76 166.418 188.753 166.498L189.298 167.09C189.046 167.322 188.79 167.527 188.533 167.707C188.266 168.681 187.802 169.568 187.225 170.362ZM180.251 185.029C179.907 183.449 179.828 181.426 180.457 179.133C181.113 176.744 182.43 174.878 183.754 173.546C182.927 174.08 182.134 174.48 181.499 174.739C179.687 177.306 176.957 179.187 175.349 180.003C176.915 181.033 177.518 182.983 177.621 185.054L180.251 185.029ZM107.48 102.543C107.494 102.644 107.507 102.747 107.518 102.851L108.747 102.725C108.711 102.377 108.658 102.043 108.589 101.722C109.794 101.009 111.202 100.653 112.496 100.51C112.692 101.132 112.926 101.807 113.198 102.515L106.082 104.557C106.415 103.743 106.9 103.08 107.48 102.543ZM175.464 104.873C175.423 104.891 175.384 104.91 175.345 104.929L168.109 102.798C168.317 102.097 168.471 101.396 168.557 100.703C168.699 100.57 168.838 100.43 168.972 100.282C170.338 100.507 171.822 100.97 173.061 101.812C172.952 102.206 172.893 102.568 172.884 102.879L174.119 102.915C174.121 102.852 174.126 102.785 174.135 102.713C174.702 103.302 175.164 104.015 175.464 104.873ZM71.8678 162.544C72.1705 164.231 72.5412 166.074 72.8864 167.512C73.1746 166.949 73.5212 166.42 73.9182 165.935C73.8037 164.65 73.795 163.495 73.8808 162.479L71.8678 162.544ZM87.9063 178.8L87.3208 177.588C88.788 176.003 89.6848 173.883 89.6848 171.553C89.6848 170.634 89.5452 169.748 89.2862 168.914C89.3083 168.833 89.3285 168.749 89.3467 168.664C91.1066 168.217 93.0877 166.935 92.755 163.973C92.6213 162.783 92.1825 161.689 91.5873 160.718L94.0259 159.936C93.2133 162.628 92.8981 165.376 93.1776 168.19L93.0269 169.037C93.1087 169.052 93.1951 169.066 93.2857 169.08C93.5203 170.715 93.9573 172.372 94.6153 174.053L94.334 174.637C94.5068 174.72 94.715 174.8 94.9514 174.869C95.2354 175.526 95.5534 176.187 95.9064 176.851C96.8845 177.866 99.5363 179.536 102.318 178.101C102.3 178.073 102.281 178.044 102.262 178.014C103.255 178.801 104.177 179.699 104.601 180.546C104.185 181.638 103.594 183.802 103.646 185.773L91.3312 185.893L88.0158 179.027C88.0407 178.982 88.0646 178.936 88.0875 178.889L87.9063 178.8Z" stroke="url(#paint1_linear_617_98)" stroke-width="16" stroke-linejoin="round" mask="url(#path-2-outside-1_617_98)"/>
<path d="M47.165 205.515L55.5331 202.037L239.102 204.292L238.626 207.552L47.9257 208.558L47.165 205.515Z" fill="#270035"/>
<path d="M68.7601 151.399L68.5488 152.157L69.0532 152.762L79.4318 165.206L80.0792 165.982L81.0416 165.673L97.9952 160.239L98.1656 160.185L98.3185 160.091L108.099 154.125L119.44 167.289L120.143 168.104L121.141 167.7C128.253 164.813 136.506 164.135 144.006 164.499C151.495 164.862 158.109 166.258 161.867 167.417L162.839 167.717L163.477 166.924L173.285 154.738L186.242 165.403L186.588 165.687L187.033 165.736L189.71 166.029L192.003 170.475L192.268 170.988L192.809 171.191C196.531 172.59 202.231 174.669 207.236 176.362C209.736 177.208 212.079 177.963 213.921 178.49C214.84 178.752 215.656 178.964 216.316 179.102C216.645 179.171 216.956 179.225 217.233 179.257C217.48 179.285 217.817 179.309 218.144 179.255C219.606 179.011 220.525 178.106 221.037 177.174C221.524 176.288 221.679 175.33 221.679 174.678V174.056L221.24 173.617L220.004 172.382C220.147 171.498 220.267 170.379 220.272 169.243C220.278 167.793 220.105 165.987 219.267 164.683C218.524 163.527 217.4 162.586 216.393 161.9C215.652 161.394 214.912 160.984 214.308 160.692C214.049 159.972 213.738 159.062 213.473 158.199C213.301 157.639 213.154 157.118 213.055 156.691C213.005 156.478 212.97 156.303 212.95 156.168C212.931 156.045 212.93 155.993 212.929 155.993C212.929 155.993 212.929 155.993 212.929 155.993C212.965 155.175 212.683 154.337 212.442 153.725C212.3 153.365 212.123 152.97 211.963 152.62L213.077 150.558L213.334 150.08L213.227 149.548C212.458 145.737 210.673 137.287 209.811 134.699C209.077 132.497 207.705 131.323 206.459 130.843C206.408 130.564 206.347 130.266 206.276 129.964C206.107 129.246 205.844 128.355 205.441 127.673C205.066 127.039 204.319 126.176 203.651 125.447C203.146 124.896 202.619 124.351 202.186 123.914C202.185 123.175 202.129 122.255 201.969 121.352C201.862 120.744 201.699 120.101 201.451 119.508C201.207 118.928 200.841 118.298 200.27 117.825C199.857 117.484 199.088 116.989 198.218 116.457C197.314 115.904 196.201 115.251 195.03 114.579C192.687 113.233 190.085 111.79 188.404 110.872L187.482 110.369L186.694 111.062L183.968 113.459L97.4818 113.352L94.5061 111.192L93.8602 110.723L93.1105 110.997C90.8386 111.826 85.4452 114.021 82.6889 116.03C81.1315 117.165 80.1089 118.735 79.4592 120.16C78.9336 121.314 78.6207 122.441 78.4681 123.306C77.3822 124.422 76.7192 125.799 76.3202 127.031C76.0098 127.99 75.8394 128.922 75.7636 129.689L75.1962 129.997L74.6364 130.3L74.4656 130.913L68.7601 151.399Z" fill="#BCBCBD" stroke="#270035" stroke-width="3"/>
<path d="M95.7979 113.927L98.6234 110.341L102.21 105.668L114.707 102.082L165.677 102.082L181.544 106.755C182.884 106.936 185.869 107.581 187.086 108.711C188.303 109.841 188.318 111.645 188.173 112.406C185.999 116.028 181.435 124.991 180.566 131.859C179.696 138.727 179.914 149.066 180.131 153.377L168.285 146.965C157.309 145.77 135.226 143.357 134.704 143.27C134.182 143.183 113.548 149.102 103.296 152.073C103.224 149.428 102.862 142.314 101.992 135.011C101.123 127.708 97.5004 117.912 95.7979 113.927Z" fill="#C4C4C4"/>
<path d="M106.122 115.449C109.419 115.666 116.903 115.101 120.467 111.102M109.817 120.774C112.933 120.194 119.902 118.34 122.858 115.558M160.678 111.645C163.322 113.312 170.285 116.492 176.979 115.884M158.613 115.666C161.185 117.296 167.742 120.687 173.393 121.209M98.6234 110.341L95.7979 113.927C97.5004 117.912 101.123 127.708 101.992 135.011C102.862 142.314 103.224 149.428 103.296 152.073C113.548 149.102 134.182 143.183 134.704 143.27C135.226 143.357 157.309 145.77 168.285 146.965L180.131 153.377C179.914 149.066 179.696 138.727 180.566 131.859C181.435 124.991 185.999 116.028 188.173 112.406C188.318 111.645 188.303 109.841 187.086 108.711C185.869 107.581 182.884 106.936 181.544 106.755L165.677 102.082L114.707 102.082L102.21 105.668L98.6234 110.341Z" stroke="#270035" stroke-width="3"/>
<path d="M99.275 139.358C100.84 130.142 97.6086 119.796 95.7973 115.775L99.1661 113.275C99.5284 116.608 100.427 123.86 101.122 126.208C101.818 128.555 103.658 134.286 104.491 136.858C104.839 135.554 104.998 132.547 105.035 131.207L106.773 138.162L106.882 131.642L105.687 122.078L111.121 129.794L111.338 144.792C109.201 146.784 103.6 151.225 98.2967 153.051C92.9933 154.877 87.9725 154.681 86.125 154.355L92.3196 150.551C89.1897 151.334 86.8858 150.443 86.1251 149.899C89.255 149.552 93.4427 146.422 95.1453 144.9C96.0147 141.075 94.4208 133.743 93.5152 130.555C95.7757 132.989 98.297 137.438 99.275 139.358Z" fill="#270035"/>
<path d="M182.413 139.792C179.891 131.185 184.188 119.615 186.651 114.905C184.39 112.036 182.739 113.855 182.195 115.123C181.833 117.876 180.935 124.034 180.239 126.643C179.543 129.251 177.413 135.192 176.435 137.836L176.109 131.424C175.848 133.685 174.769 137.22 174.262 138.706C174.298 137.546 174.392 134.706 174.479 132.62C174.566 130.533 174.733 125.954 174.805 123.926L172.74 128.164L169.589 142.183C170.386 144.284 173.871 149.226 181.434 152.182C188.998 155.138 197.482 155.659 200.779 155.551C195.997 154.855 191.904 152.435 190.455 151.312C193.411 151.921 195.454 151.131 196.106 150.66C191.15 150.312 187.303 146.893 185.999 145.226C185.738 140.358 187.194 133.562 187.955 130.772C185.173 133.294 183.101 137.836 182.413 139.792Z" fill="#270035"/>
<path fill-rule="evenodd" clip-rule="evenodd" d="M184.969 116.916C187.269 117.858 192.359 119.981 194.315 120.937C196.271 121.893 196.361 126.552 196.162 128.762C196.76 128.237 198.021 126.719 198.281 124.849C199.875 126.353 203.194 130.555 203.715 135.337C204.237 140.119 202.194 143.343 201.107 144.357C201.433 146.386 203.215 150.834 207.736 152.399C208.171 153.667 208.801 156.398 207.845 157.181C206.889 157.963 204.114 158.594 202.846 158.811C204.331 159.391 207.932 160.267 210.453 159.137C209.756 160.199 207.38 162.071 203.174 161.774C202.739 161.718 202.336 161.672 201.976 161.637C202.391 161.702 202.79 161.747 203.174 161.774C206.736 162.235 212.459 163.395 213.931 165.332C215.583 167.505 211.576 170.657 209.366 171.961L219.568 176.706C220.032 176.027 220.18 175.193 220.18 174.678L218.387 172.885C218.749 171.182 219.18 167.32 218.007 165.495C216.833 163.669 214.257 162.27 213.116 161.8C212.537 160.242 211.388 156.887 211.432 155.931C211.468 155.138 210.971 154.053 210.542 153.117C210.453 152.924 210.368 152.738 210.291 152.562L211.758 149.845C210.979 145.987 209.215 137.652 208.389 135.174C207.563 132.696 205.871 132.076 205.129 132.076C205.038 131.261 204.716 129.392 204.15 128.436C203.585 127.479 201.597 125.429 200.673 124.523C200.745 123.111 200.575 120.024 199.314 118.981C198.054 117.938 191.037 114.018 187.686 112.189L184.534 114.96L184.424 114.96L184.969 116.916Z" fill="#9E0BCF"/>
<path fill-rule="evenodd" clip-rule="evenodd" d="M99.2034 116.318C96.9393 116.771 91.683 118.1 88.7705 119.796C85.1299 121.915 83.9888 124.904 84.5865 129.196C84.0793 128.798 82.9454 127.566 82.4672 125.827C81.8876 127.639 80.9566 131.978 81.8695 134.848L81.9783 142.075C82.1957 143.886 81.6088 148.682 77.5226 153.377L72.6547 153.685L70.2012 151.747L75.9067 131.261L77.2108 130.555C77.2108 129.142 77.7434 125.849 79.8734 123.98C80.0364 122.495 81.0037 119.057 83.5684 117.188C86.1332 115.319 91.3388 113.185 93.6211 112.352L96.99 114.797L99.2476 114.8C99.2472 115.287 99.2328 115.793 99.2034 116.318Z" fill="#BA016B"/>
<path d="M97.3193 166.636L100.254 155.442L103.623 150.334L126.336 142.727L149.267 142.944C157.889 145.697 175.871 151.617 178.827 153.268C182.522 155.333 183.935 164.353 183.283 170.331C182.761 175.112 177.777 178.771 175.349 180.003C178.653 182.176 177.668 188.443 176.762 191.305L161.656 193.588C142.855 192.646 105.014 190.197 104.057 187.936C103.101 185.676 104.021 182.068 104.601 180.546C103.731 178.807 100.761 176.851 99.3843 176.091L97.3193 166.636Z" fill="url(#paint2_linear_617_98)" stroke="#270035" stroke-width="3"/>
<path d="M115.975 73.5183L116.374 74.3172L117.267 74.3467L164.867 75.9225L166.084 75.9628L166.374 74.7807L167.786 69.0208L167.917 68.4878L167.673 67.9962C164.823 62.258 155.383 50.846 140.251 51.3519C125.157 51.8565 116.648 63.2355 114.251 68.8933L113.981 69.5305L114.29 70.1494L115.975 73.5183Z" fill="url(#paint3_linear_617_98)" stroke="#270035" stroke-width="3"/>
<path d="M123.293 155.007C122.423 153.703 123.872 151.421 124.705 150.443C121.988 151.095 116.467 152.442 116.12 152.616C115.685 152.834 112.207 154.898 112.859 157.724C113.381 159.985 116.265 164.245 117.641 166.092L124.162 166.527C129.125 165.513 139.898 163.419 143.289 163.158C146.68 162.897 156.584 165.73 161.112 167.179L170.241 157.833C170.639 156.311 171.132 153.094 169.915 152.399C168.698 151.703 164.988 150.225 163.286 149.573L161.764 151.747C161.438 152.87 160.569 155.507 159.699 157.072C158.83 158.637 156.077 160.043 154.809 160.55C151.186 159.861 143.246 158.485 140.463 158.485C137.681 158.485 129.958 159.789 126.444 160.441C125.756 159.173 124.162 156.311 123.293 155.007Z" fill="url(#paint4_linear_617_98)"/>
<path fill-rule="evenodd" clip-rule="evenodd" d="M116.005 68.6578C119.597 63.0291 127.61 55.2123 140.271 54.8072C153.604 54.3806 162.536 62.947 166.324 68.684L166.329 68.6635C163.612 63.1934 154.602 52.3729 140.301 52.851C126.698 53.3058 118.702 63.1037 116.005 68.6578Z" fill="url(#paint5_linear_617_98)"/>
<path fill-rule="evenodd" clip-rule="evenodd" d="M132.423 54.2638L133.292 65.0844L141.986 64.3616L148.724 65.5662L149.579 54.198C146.793 53.2608 143.696 52.7375 140.301 52.851C137.425 52.9472 134.8 53.4609 132.423 54.2638Z" fill="#FFFFFE"/>
<path d="M133.292 65.0844L132.793 65.1244L132.834 65.6242L133.333 65.5826L133.292 65.0844ZM132.423 54.2638L132.263 53.7901L131.893 53.9149L131.924 54.3038L132.423 54.2638ZM141.986 64.3616L142.074 63.8694L142.01 63.8579L141.945 63.8633L141.986 64.3616ZM148.724 65.5662L148.636 66.0584L149.181 66.1558L149.223 65.6037L148.724 65.5662ZM149.579 54.198L150.077 54.2355L150.106 53.8481L149.738 53.7242L149.579 54.198ZM140.301 52.851L140.284 52.3513L140.301 52.851ZM133.79 65.0443L132.921 54.2238L131.924 54.3038L132.793 65.1244L133.79 65.0443ZM141.945 63.8633L133.25 64.5861L133.333 65.5826L142.027 64.8599L141.945 63.8633ZM148.812 65.074L142.074 63.8694L141.898 64.8538L148.636 66.0584L148.812 65.074ZM149.08 54.1606L148.225 65.5287L149.223 65.6037L150.077 54.2355L149.08 54.1606ZM149.738 53.7242C146.899 52.7688 143.742 52.2357 140.284 52.3513L140.318 53.3508C143.65 53.2393 146.688 53.7528 149.419 54.6719L149.738 53.7242ZM140.284 52.3513C137.359 52.4491 134.685 52.972 132.263 53.7901L132.583 54.7375C134.915 53.9498 137.492 53.4452 140.318 53.3508L140.284 52.3513Z" fill="#270035"/>
<path d="M140.355 161.419L141.007 189.893" stroke="#270035"/>
<path d="M71.1826 186.089L48.8496 204.89L236.915 203.695L205.344 184.785L71.1826 186.089Z" fill="#DEDEDE" stroke="#270035" stroke-width="2"/>
<path d="M203.768 187.447L177.626 187.713L176.842 186.619L202.409 186.469L203.768 187.447Z" fill="#C4C4C4"/>
<path d="M165.547 186.684L175.576 186.626L176.452 187.725L166.349 187.828L165.547 186.684Z" fill="#C4C4C4"/>
<path d="M164.63 187.845L120.235 188.297L120.37 186.948L163.767 186.695L164.63 187.845Z" fill="#C4C4C4"/>
<path d="M119.083 188.309L119.184 186.955L109.613 187.011L109.263 188.409L119.083 188.309Z" fill="#C4C4C4"/>
<path d="M107.981 187.021L107.607 188.425L99.9055 188.504L100.582 187.064L107.981 187.021Z" fill="#C4C4C4"/>
<path d="M98.4495 188.519L99.2486 187.071L83.2102 187.165L82.0155 188.686L98.4495 188.519Z" fill="#C4C4C4"/>
<path d="M81.8875 187.173L81.3427 188.262C78.497 188.28 72.9094 188.303 72.1347 188.269L73.3447 187.223L81.8875 187.173Z" fill="#C4C4C4"/>
<path d="M70.5852 189.608L68.7041 191.235L97.928 190.881L98.4799 189.374L70.5852 189.608Z" fill="#C4C4C4"/>
<path d="M100.198 189.36L99.5022 190.862L107.547 190.765L107.915 189.295L100.198 189.36Z" fill="#C4C4C4"/>
<path d="M109.544 189.281L109.23 190.744L117.101 190.649L117.188 189.217L109.544 189.281Z" fill="#C4C4C4"/>
<path d="M118.749 189.204L118.85 190.628L126.553 190.534V189.138L118.749 189.204Z" fill="#C4C4C4"/>
<path d="M128.318 189.123L128.414 190.512L136.48 190.414L136.107 189.058L128.318 189.123Z" fill="#C4C4C4"/>
<path d="M137.583 189.045L138.138 190.394L145.957 190.299L145.153 188.982L137.583 189.045Z" fill="#C4C4C4"/>
<path d="M147.014 188.966L147.705 190.278L155.619 190.182L154.662 188.902L147.014 188.966Z" fill="#C4C4C4"/>
<path d="M156.437 188.887L157.255 190.163L165.06 190.068L163.998 188.823L156.437 188.887Z" fill="#C4C4C4"/>
<path d="M165.615 188.81L166.915 190.046L174.953 189.948L173.713 188.742L165.615 188.81Z" fill="#C4C4C4"/>
<path d="M175.296 188.728L176.587 189.929L206.484 189.567L204.854 188.48L175.296 188.728Z" fill="#C4C4C4"/>
<path d="M67.8232 191.997L65.8128 193.735L76.3231 193.618L77.3685 191.886L67.8232 191.997Z" fill="#C4C4C4"/>
<path d="M71.3143 194.536L64.8031 194.608L62.1642 196.889L69.7798 196.799L71.3143 194.536Z" fill="#C4C4C4"/>
<path d="M114.744 194.059L114.574 196.266L124.958 196.143L124.829 193.948L114.744 194.059Z" fill="#C4C4C4"/>
<path d="M126.455 193.93L126.813 196.121L135.799 196.014L135.053 193.836L126.455 193.93Z" fill="#C4C4C4"/>
<path d="M136.721 193.818L137.609 195.992L146.545 195.886L145.379 193.723L136.721 193.818Z" fill="#C4C4C4"/>
<path d="M147.273 193.702L148.366 195.864L157.406 195.757L155.715 193.609L147.273 193.702Z" fill="#C4C4C4"/>
<path d="M157.59 193.588L159.169 195.736L168.012 195.631L165.955 193.497L157.59 193.588Z" fill="#C4C4C4"/>
<path d="M168.06 193.473L169.987 195.607L178.694 195.504L176.456 193.381L168.06 193.473Z" fill="#C4C4C4"/>
<path d="M178.446 193.359L180.641 195.481L189.847 195.371L186.986 193.265L178.446 193.359Z" fill="#C4C4C4"/>
<path d="M189.127 193.242L191.959 195.346L200.936 195.24L198.295 193.141L189.127 193.242Z" fill="#C4C4C4"/>
<path d="M200.491 193.117L203.005 195.215L216.483 195.055L212.081 192.99L200.491 193.117Z" fill="#C4C4C4"/>
<path d="M73.0303 197.621L61.1573 197.76L59.333 199.337L71.8699 199.238L73.0303 197.621Z" fill="#C4C4C4"/>
<path d="M109.118 197.199L108.928 198.944L119.434 198.861L119.434 197.078L109.118 197.199Z" fill="#C4C4C4"/>
<path d="M121.352 197.056L121.426 198.845L130.889 198.77L130.557 196.948L121.352 197.056Z" fill="#C4C4C4"/>
<path d="M132.38 196.927L132.89 198.754L142.387 198.679L141.377 196.821L132.38 196.927Z" fill="#C4C4C4"/>
<path d="M143.368 196.798L144.156 198.665L153.849 198.588L152.584 196.69L143.368 196.798Z" fill="#C4C4C4"/>
<path d="M154.613 196.666L155.871 198.572L165.275 198.497L163.621 196.561L154.613 196.666Z" fill="#C4C4C4"/>
<path d="M165.321 196.541L167.041 198.483L176.722 198.407L174.649 196.432L165.321 196.541Z" fill="#C4C4C4"/>
<path d="M176.521 196.41L178.694 198.391L188.328 198.315L185.604 196.304L176.521 196.41Z" fill="#C4C4C4"/>
<path d="M187.702 196.279L190.197 198.3L198.599 198.233L195.961 196.183L187.702 196.279Z" fill="#C4C4C4"/>
<path d="M77.3826 199.855L68.4257 199.919L67.5498 201.482L76.9755 201.429L77.3826 199.855Z" fill="#C4C4C4"/>
<path d="M104.363 199.662L104.183 201.278L114.734 201.22V199.587L104.363 199.662Z" fill="#C4C4C4"/>
<path d="M116.357 201.211L126.899 201.152L126.768 199.501L116.27 199.576L116.357 201.211Z" fill="#C4C4C4"/>
<path d="M128.857 201.141L128.479 199.489L138.745 199.415L139.328 201.083L128.857 201.141Z" fill="#C4C4C4"/>
<path d="M140.702 199.401L141.398 201.072L151.927 201.013L151.128 199.326L140.702 199.401Z" fill="#C4C4C4"/>
<path d="M153.671 201.003L152.705 199.315L163.077 199.24L164.198 200.945L153.671 201.003Z" fill="#C4C4C4"/>
<path d="M164.856 199.227L166.194 200.934L176.651 200.876L175.378 199.152L164.856 199.227Z" fill="#C4C4C4"/>
<path d="M178.345 200.866L176.952 199.141L187.743 199.063L189.382 200.805L178.345 200.866Z" fill="#C4C4C4"/>
<path d="M189.239 199.053L191.198 200.795L201.82 200.736L199.558 198.978L189.239 199.053Z" fill="#C4C4C4"/>
<path d="M203.869 200.725L201.592 198.964L212.052 198.889L214.797 200.664L203.869 200.725Z" fill="#C4C4C4"/>
<path d="M213.784 198.876L216.561 200.654L226.807 200.597L223.873 198.804L213.784 198.876Z" fill="#C4C4C4"/>
<path d="M209.33 196.026L212.605 198.122L222.569 198.043L218.059 195.924L209.33 196.026Z" fill="#C4C4C4"/>
<path d="M207.654 196.046L210.887 198.136L200.626 198.217L197.965 196.159L207.654 196.046Z" fill="#C4C4C4"/>
<path d="M66.7313 199.932L65.4819 201.493L56.7832 201.542L58.5777 199.99L66.7313 199.932Z" fill="#C4C4C4"/>
<path d="M112.412 193.215L112.673 191.477L122.081 191.368L122.164 193.106L112.412 193.215Z" fill="#C4C4C4"/>
<path d="M123.842 193.088L132.296 192.994L131.717 191.256L123.673 191.35L123.842 193.088Z" fill="#C4C4C4"/>
<path d="M131.843 191.255L133.454 191.305L134.06 192.974L142.259 192.882L141.318 191.145L131.843 191.255Z" fill="#C4C4C4"/>
<path d="M143.13 191.124L144 192.863L152.501 192.768L151.217 191.031L143.13 191.124Z" fill="#C4C4C4"/>
<path d="M152.981 191.01L154.307 192.748L162.655 192.655L161.227 190.915L152.981 191.01Z" fill="#C4C4C4"/>
<path d="M163.167 190.892L164.594 192.633L172.84 192.542L171.118 190.8L163.167 190.892Z" fill="#C4C4C4"/>
<path d="M173.064 190.778L174.858 192.519L182.906 192.429L180.894 190.687L173.064 190.778Z" fill="#C4C4C4"/>
<path d="M182.994 190.662L207.245 190.382L210.614 192.12L185.227 192.403L182.994 190.662Z" fill="#C4C4C4"/>
<ellipse cx="91.6147" cy="195.652" rx="12.5522" ry="4.56443" fill="#270035"/>
<path d="M84.7676 195.598C84.811 193.598 86.9956 191.613 88.0824 190.871C88.3903 190.382 90.5275 189.762 93.3531 190.545C96.1787 191.327 97.6821 193.959 97.8089 195.354C92.9836 199.744 86.6513 197.409 84.7676 195.598Z" fill="#C4C4C4" stroke="#270035" stroke-width="2"/>
<path d="M87.592 191.794L80.1475 178.862L86.1248 175.112L93.7865 190.979C93.9676 191.523 93.8082 192.685 91.7216 192.99C89.635 193.294 88.0991 192.32 87.592 191.794Z" fill="#C4C4C4" stroke="#270035" stroke-width="2"/>
<path fill-rule="evenodd" clip-rule="evenodd" d="M108.839 112.515C108.622 111.21 108.524 108.244 109.871 106.809L118.022 104.853L156.983 103.06C161.312 104.128 170.176 106.374 171.002 106.809C172.034 107.352 172.795 111.156 171.817 114.797C172.433 114 173.795 112.102 174.317 110.884C174.746 109.883 174.812 106.877 174.782 104.763L165.677 102.082L114.708 102.082L103.818 105.207C103.795 108.215 104.88 111.482 108.839 112.515Z" fill="url(#paint6_linear_617_98)"/>
<path d="M81.833 181.47C83.3906 181.452 86.7667 180.883 87.8101 178.753" stroke="#270035"/>
<path d="M121.011 113.493C115.882 110.363 112.861 102.335 111.991 98.7126C120.468 97.8794 137.356 96.1044 137.096 95.6697C136.835 95.2349 157.998 97.5896 168.612 98.8213C169.046 104.646 163.432 111.681 160.57 114.471L161.765 125.773L144.377 121.969L119.816 124.578L121.011 113.493Z" fill="#270035"/>
<path d="M169.263 128.381C145.267 110.211 121.011 120.231 111.882 127.512L110.469 129.142L112.968 148.595L119.163 151.747C136.899 143.314 155.389 148.305 162.416 151.856L170.132 144.792L169.263 128.381Z" fill="#DEDEDE" stroke="#270035" stroke-width="3"/>
<path d="M119.815 130.012L134.378 126.969L134.595 135.337L130.031 135.391L132.965 128.436M162.254 129.794C159.935 128.834 153.69 126.784 147.256 126.262L146.985 135.391L152.092 135.663L148.615 127.947M122.967 141.151C125.412 140.372 131.596 138.858 136.769 139.032M145.409 138.977C148.76 139.231 156.276 139.988 159.537 140.988M161.873 131.044L153.886 129.686L156.929 136.478L158.939 136.641M120.359 131.805L128.238 130.066L124.978 136.532L123.021 136.804" stroke="#270035" stroke-width="2"/>
<circle cx="80.8003" cy="171.553" r="7.88426" fill="#CD2123" stroke="#270035" stroke-width="2"/>
<path d="M86.1797 192.99C87.6468 194.729 92.5373 196.658 95.8791 192.392" stroke="#270035"/>
<path d="M115.305 101.864L118.89 100.669L124.324 99.9078L139.648 104.309L151.548 99.1471L167.741 97.4084C167.796 100.959 164.318 108.004 156.167 111.917C146.531 116.542 133.935 115.601 127.096 112.677C120.358 109.797 116.645 104.871 115.305 101.864Z" fill="#BCBCBD" stroke="#270035" stroke-width="2"/>
<path d="M115.02 101.995L117.487 102.289L116.598 99.9687L113.827 92.7417L113.515 91.928L112.653 91.7961C109.07 91.247 105.847 91.5621 103.115 92.7778C100.369 93.9999 98.2275 96.0855 96.7538 98.8829C94.1915 103.747 93.826 114.147 101.085 124.669C106.828 132.995 113.49 137.77 116.258 139.174L116.76 139.429L117.306 139.29C120.24 138.543 121.81 136.652 122.49 134.606C123.138 132.653 122.969 130.613 122.625 129.305L122.515 128.883L122.195 128.586C117.714 124.427 113.577 119.816 110.768 115.59C109.363 113.476 108.321 111.503 107.723 109.765C107.118 108.009 107.017 106.637 107.296 105.636C107.755 103.992 108.968 103.023 110.525 102.473C112.115 101.912 113.896 101.862 115.02 101.995ZM164.82 100.662L165.214 101.69L166.314 101.623C167.465 101.552 169.288 101.702 170.908 102.361C172.502 103.01 173.736 104.071 174.168 105.767C174.443 106.845 174.356 108.295 173.827 110.068C173.303 111.825 172.378 113.789 171.119 115.83C168.6 119.913 164.834 124.156 160.62 127.475L160.309 127.72L160.16 128.086C159.558 129.558 159.062 131.914 159.728 134.135C160.071 135.278 160.724 136.384 161.812 137.267C162.893 138.145 164.321 138.737 166.116 138.995L166.674 139.075L167.147 138.768C170.101 136.849 177.049 131.329 181.505 124.353C186.968 115.799 189.338 107.3 185.655 99.9936C181.895 92.5357 173.835 90.8924 168.5 91.294C167.177 91.3935 166.09 91.8754 165.308 92.7184C164.55 93.5358 164.209 94.5526 164.081 95.5016C163.831 97.3572 164.332 99.3856 164.82 100.662Z" fill="#DEDEDE" stroke="#270035" stroke-width="3"/>
<path fill-rule="evenodd" clip-rule="evenodd" d="M111.612 93.1691C105.289 92.4367 100.635 94.7342 98.0809 99.582C95.8303 103.854 95.3096 113.656 102.319 123.817C107.927 131.946 114.401 136.55 116.936 137.836C118.054 137.552 118.913 137.075 119.565 136.484C111.776 130.341 98.0309 116.846 98.9505 106.646C99.9069 96.0392 108.043 94.3293 111.992 94.8002L111.612 93.1691ZM172.579 94.3655C175.984 95.2712 182.882 98.9299 183.229 106.32C183.664 115.558 177.035 129.251 163.504 135.989C163.52 136.149 163.72 136.508 164.05 136.885C164.687 137.167 165.441 137.382 166.33 137.51C169.174 135.663 175.937 130.283 180.241 123.545C185.62 115.123 187.63 107.244 184.316 100.669C181.718 95.5163 176.785 93.3969 172.345 92.8732L172.579 94.3655Z" fill="url(#paint7_linear_617_98)"/>
<path d="M164.041 73.9661L163.407 74.4217L163.416 75.2024L163.524 83.9975L160.986 101.651L160.803 102.926L162.036 103.3C164.323 103.994 166.377 103.834 168.124 102.864C169.826 101.92 171.046 100.312 171.927 98.4706C173.676 94.8171 174.347 89.708 174.512 84.9077C174.798 76.5756 169.909 73.0889 166.965 72.4668L166.317 72.3298L165.78 72.7163L164.041 73.9661ZM118.485 73.4907L118.383 72.1833L117.073 72.1106C114.624 71.9745 109.56 73.3119 107.934 79.359C106.995 82.85 106.967 87.082 107.617 91.0041C108.265 94.9085 109.619 98.7145 111.626 101.27C113.402 103.529 115.644 104.184 117.684 104.001C119.625 103.827 121.324 102.909 122.324 102.116L123.047 101.542L122.86 100.638L119.239 83.0695L118.485 73.4907Z" fill="#BCBCBD" stroke="#270035" stroke-width="3"/>
<path fill-rule="evenodd" clip-rule="evenodd" d="M116.99 73.6083C115.034 73.4996 110.774 74.5755 109.383 79.7485C108.808 81.8849 108.595 84.3594 108.697 86.8801C108.768 85.2046 108.992 83.5937 109.383 82.1394C110.774 76.9664 115.034 75.8905 116.99 75.9991L117.751 85.6714L120.963 101.252C121.119 101.148 121.262 101.043 121.391 100.94L117.751 83.2805L116.99 73.6083ZM164.916 75.1841L166.655 73.9343C168.883 74.4053 173.274 77.249 173.013 84.8563C173.006 85.0671 172.997 85.2781 172.988 85.4891C172.576 79.1942 168.702 76.7579 166.655 76.3252L164.945 77.5541L164.916 75.1841ZM164.998 84.2828L162.471 101.864C162.582 101.898 162.692 101.929 162.801 101.958L165.025 86.4865L164.998 84.2828Z" fill="url(#paint8_linear_617_98)"/>
<path d="M111.501 87.3016C111.24 81.5634 113.24 80.2014 114.272 80.2376L115.304 82.2481L117.75 98.441L114.815 98.8213C114.544 98.3685 113.924 97.1803 113.62 96.0501C113.316 94.9198 113.747 93.8041 114 93.3875L113.24 89.7468L111.501 87.3016Z" fill="#270035"/>
<path d="M170.241 87.5189C171.067 80.6506 168.339 80.0565 166.872 80.618L164.589 98.0606L167.035 98.604C167.947 97.778 168.538 95.4705 168.719 94.4199L167.958 93.4418L168.665 89.3121L170.241 87.5189Z" fill="#270035"/>
<path d="M113.76 89.0647L113.761 89.0729L113.762 89.0811C114.647 96.1065 116.72 100.726 119.295 103.857C121.874 106.992 124.852 108.503 127.28 109.485C132.141 111.451 140.68 113.542 151.574 110.367C162.567 107.163 166.423 98.8364 167.137 95.5616C167.159 95.4592 167.185 95.3427 167.214 95.2129C167.581 93.5553 168.427 89.7367 168.627 85.59C168.837 81.2207 168.363 75.9811 165.324 72.6386C159.732 66.4868 152.903 64.3479 142.137 64.0827C131.357 63.8172 122.077 66.7719 117.144 71.8185C114.521 74.5011 113.635 78.1334 113.403 81.3176C113.19 84.2396 113.516 86.994 113.709 88.6306C113.728 88.7856 113.745 88.9305 113.76 89.0647Z" fill="#DEDEDE" stroke="#270035" stroke-width="3"/>
<path fill-rule="evenodd" clip-rule="evenodd" d="M129.079 108.564C133.86 110.27 141.539 111.729 151.155 108.927C161.51 105.909 165.048 98.1037 165.672 95.2419C165.695 95.1385 165.721 95.0218 165.749 94.8928C166.512 91.4496 169.231 79.1646 164.215 73.6476C159.012 67.9238 152.664 65.8424 142.101 65.5823C136.361 65.4409 131.144 66.2367 126.85 67.7359C130.149 67.0752 133.818 66.7554 137.729 66.8463C148.292 67.0918 154.641 69.0561 159.844 74.4576C164.859 79.664 162.14 91.2574 161.378 94.5067C161.349 94.6285 161.323 94.7386 161.301 94.8361C160.676 97.5369 157.138 104.903 146.783 107.751C139.704 109.698 133.675 109.465 129.079 108.564Z" fill="#9E0BCF"/>
<path d="M121.43 73.4453C116.518 76.7056 116.54 82.7915 117.246 88.0623C117.953 93.3332 118.725 95.8871 121.159 99.3647C124.202 103.712 131.157 108.059 141.644 107.515C152.132 106.972 159.739 102.353 162.402 97.6259C165.064 92.8985 165.879 81.5961 163.978 77.6837C162.076 73.7713 157.511 69.6416 146.155 68.9895C134.798 68.3375 127.571 69.3699 121.43 73.4453Z" fill="#270035"/>
<path fill-rule="evenodd" clip-rule="evenodd" d="M123.759 74.8505C121.369 78.4294 121.476 83.5293 121.994 88.0564C122.627 93.5886 123.319 96.2691 125.501 99.9192C125.817 100.448 126.18 100.977 126.59 101.498C125.211 100.473 124.121 99.3389 123.327 98.2052C121.145 95.0883 120.454 92.7993 119.821 88.0753C119.187 83.3512 119.168 77.8966 123.571 74.9746C123.633 74.9329 123.696 74.8915 123.759 74.8505Z" fill="#BA006B"/>
<path d="M197.893 133.724L197.277 133.902L197.182 134.536C196.845 136.772 197.111 142.154 200.858 146.229C202.751 148.288 205.198 149.518 207.44 150.227C209.68 150.935 211.787 151.146 213.082 151.116L214.234 151.09L214.046 149.954C213.719 147.973 212.857 143.069 212.025 139.305C211.161 135.392 209.244 132.392 208.334 131.32L207.915 130.827L207.294 131.007L197.893 133.724Z" fill="#DEDEDE" stroke="#270035" stroke-width="2"/>
<path d="M104.221 179.025L100.526 175.113C96.1248 173.048 96.9939 162.941 96.8852 162.397C96.7765 161.854 106.231 148.487 110.796 145.77C115.36 143.053 136.552 140.879 143.508 141.314C150.463 141.749 164.808 144.9 165.949 147.4C166.862 149.4 164.229 152.508 162.798 153.812C144.366 145.248 124.761 151.113 117.262 155.116C119.305 155.29 121.156 156.348 121.827 156.855C119.262 156.42 117.389 156.891 116.773 157.181C118.077 160.224 120.613 162.434 121.718 163.158C126.282 158.42 131.155 157.127 133.02 157.072C127.478 159.409 128.075 161.419 129.38 161.419C130.684 161.419 137.585 159.626 140.302 159.463C142.475 159.333 150.698 160.677 154.538 161.365C153.582 159.365 150.409 157.561 148.941 156.909C152.549 157.344 155.371 159.3 156.331 160.224C157.473 161.184 159.972 163.082 160.842 162.995C161.711 162.908 164.573 158.612 165.895 156.474L161.168 156.583C166.514 156.192 169.952 152.109 171.003 150.117C173.249 151.928 178.056 155.931 179.317 157.453C180.892 159.354 182.957 166.31 182.414 170.276C181.979 173.45 179.117 176.308 177.741 177.34C180.392 168.386 176.926 163.72 174.861 162.506C176.643 165.375 176.69 168.846 176.491 170.222C175.241 165.658 172.307 165.929 169.644 167.288C167.514 168.375 165.388 171.726 164.591 173.265C158.461 167.831 149.104 166.437 145.192 166.418C145.366 168.505 144.286 170.548 143.725 171.309C143.888 169.624 143.953 166.245 142.91 166.201C141.867 166.158 140.628 166.654 140.139 166.908C137.791 166.647 137.784 170.132 138.074 171.907L136.118 166.473C127.945 166.516 120.287 171.019 117.479 173.265C116.157 170.983 112.752 166.429 109.709 166.473C106.666 166.516 105.579 168.918 105.416 170.114C104.721 167.81 105.887 164.336 106.557 162.887C101.297 168.929 102.717 176.362 104.221 179.025Z" fill="#270035"/>
<path d="M92.7544 163.973C92.3198 160.104 88.6608 157.253 86.8856 156.311L86.125 159.354L87.8638 168.864C89.6751 168.845 93.189 167.842 92.7544 163.973Z" fill="#BA016B" stroke="#270035" stroke-width="3"/>
<path d="M59.6769 163.637L60.0009 164.908L61.3037 164.757L65.7123 164.244L86.4977 163.57L87.2342 163.546L87.6654 162.949C88.3993 161.932 89.2078 160.25 89.1968 158.313C89.1853 156.278 88.2663 154.152 85.8682 152.43C80.2791 148.418 72.312 149.4 67.3509 152.243C65.1733 153.491 63.1091 155.406 61.6649 157.376C60.9406 158.364 60.3402 159.409 59.9669 160.436C59.6011 161.443 59.4046 162.569 59.6769 163.637Z" fill="#DEDEDE" stroke="#270035" stroke-width="3"/>
<path fill-rule="evenodd" clip-rule="evenodd" d="M83.8495 160.511C83.8149 158.692 82.6021 154.865 78.0268 154.117C73.2772 153.339 67.4159 155.108 61.9619 159.602C63.2103 157.447 65.4655 155.052 68.0967 153.545C72.7238 150.893 80.0269 150.083 84.9934 153.649C88.6971 156.308 87.8616 159.733 86.7648 161.588L83.8495 160.511Z" fill="#BA016B"/>
<path d="M67.6509 175.71C64.6079 171.667 64.1189 164.335 64.0645 161.147C60.1956 162.278 59.5001 164.408 59.2827 166.799C59.0653 169.19 59.5219 174.406 62.2171 176.58C64.9123 178.753 66.9627 176.906 67.6509 175.71Z" fill="#DEDEDE"/>
<path d="M73.3564 169.244C72.7255 167.302 71.7806 162.361 71.4002 159.68C66.4011 160.495 64.9339 164.788 65.3143 166.527C65.6947 168.266 66.7814 175.601 70.0961 176.906C72.7478 177.949 74.7511 176.036 75.4212 174.949C75.0771 174.044 74.0628 171.417 73.3564 169.244Z" fill="#DEDEDE"/>
<path d="M79.877 176.58C77.0079 176.884 75.0228 171.78 74.3888 169.19C72.9217 161.636 74.4432 157.235 77.4318 157.344C80.4204 157.452 81.7788 162.18 82.3222 165.494C82.8656 168.809 83.4633 176.199 79.877 176.58Z" fill="#DEDEDE"/>
<path d="M84.1697 171.906C84.3871 167.255 82.9743 161.492 82.0505 159.083C88.0821 155.714 89.8753 163.43 89.4406 168.048C89.0928 171.743 85.4557 172.269 84.1697 171.906Z" fill="#DEDEDE"/>
<path d="M67.6509 175.71C64.6079 171.667 64.1189 164.335 64.0645 161.147C60.1956 162.278 59.5001 164.408 59.2827 166.799C59.0653 169.19 59.5219 174.406 62.2171 176.58C64.9123 178.753 66.9627 176.906 67.6509 175.71Z" stroke="#270035" stroke-width="3"/>
<path d="M73.3564 169.244C72.7255 167.302 71.7806 162.361 71.4002 159.68C66.4011 160.495 64.9339 164.788 65.3143 166.527C65.6947 168.266 66.7814 175.601 70.0961 176.906C72.7478 177.949 74.7511 176.036 75.4212 174.949C75.0771 174.044 74.0628 171.417 73.3564 169.244Z" stroke="#270035" stroke-width="3"/>
<path d="M79.877 176.58C77.0079 176.884 75.0228 171.78 74.3888 169.19C72.9217 161.636 74.4432 157.235 77.4318 157.344C80.4204 157.452 81.7788 162.18 82.3222 165.494C82.8656 168.809 83.4633 176.199 79.877 176.58Z" stroke="#270035" stroke-width="3"/>
<path d="M84.1697 171.906C84.3871 167.255 82.9743 161.492 82.0505 159.083C88.0821 155.714 89.8753 163.43 89.4406 168.048C89.0928 171.743 85.4557 172.269 84.1697 171.906Z" stroke="#270035" stroke-width="3"/>
<path d="M59.0107 168.32C59.6266 167.686 61.5103 166.342 64.1186 166.038M65.3685 165.875C66.1111 165.169 68.3788 163.712 71.5087 163.538M74.1713 162.941C75.095 162.379 77.812 161.278 81.2896 161.365M83.3545 161.637C84.1333 161.238 86.2453 160.615 88.4623 161.31" stroke="#270035"/>
<path fill-rule="evenodd" clip-rule="evenodd" d="M154.803 84.0351C155.356 89.1187 155.182 95.4673 153.396 102.734C155.776 99.9529 159.324 93.7108 159.963 85.8692L154.803 84.0351ZM154.057 79.4592L159.946 80.7643C159.768 78.7648 159.378 76.6972 158.721 74.5863L151.386 72.0868C152.246 73.5052 153.296 76.0252 154.057 79.4592Z" fill="#FFFFFE"/>
<path d="M145.028 57.7958L144.376 65.2402L146.332 65.2945L145.028 57.7958Z" fill="#270035"/>
<path d="M162.715 126.806C162.407 129.106 164.09 135.38 168.393 137.076M166.655 122.893C166.419 125.266 168.23 131.587 172.74 133.326M170.132 118.546C170.386 120.774 173.566 126.219 178.609 127.132M172.632 114.851C173.791 116.499 178.5 120.252 182.63 120.774M174.371 111.21C176.254 110.884 182.141 111.297 185.401 114.036M175.023 105.831C176.58 104.672 182.837 103.244 186.705 106.374M173.501 102.897C173.556 101.031 175.881 96.387 180.837 95.561M100.362 95.6697C102.372 95.4705 107.567 97.3107 108.132 102.788M96.1777 106.157C97.9166 104.364 102.307 103.386 106.393 105.559M96.8299 113.982C97.7355 112.696 101.503 109.635 107.372 111.265M99.4925 120.937C102.535 120.502 107.839 117.709 109.056 114.362M104.003 127.349C105.886 127.403 110.969 124.904 111.882 118.601M114.87 122.133C115.432 124.831 114.023 131.663 109.328 133.055M119.163 126.806C119.525 129.215 118.196 135.391 113.892 136.695" stroke="#270035" stroke-width="2"/>
<path d="M100.906 147.943C106.861 140.771 116.646 138.325 120.794 137.999C126.184 139.13 125.612 144.484 124.652 147.02C113.349 149.736 100.797 158.865 99.8735 165.929C99.1345 171.581 101.196 176.399 102.319 178.101C99.5366 179.536 96.8849 177.866 95.9067 176.851C90.3642 166.418 93.4615 156.909 100.906 147.943Z" fill="#DEDEDE"/>
<path d="M156.82 147.237C155.255 140.325 158.704 137.981 160.624 137.673C171.111 140.173 178.284 144.629 182.903 150.823C187.521 157.018 189.097 160.495 188.771 166.255C188.51 170.863 183.736 173.863 181.381 174.786C182.196 171.599 182.359 163.68 176.491 157.507C170.622 151.334 160.932 148.088 156.82 147.237Z" fill="#DEDEDE"/>
<path d="M100.906 147.943C106.861 140.771 116.646 138.325 120.794 137.999C126.184 139.13 125.612 144.484 124.652 147.02C113.349 149.736 100.797 158.865 99.8735 165.929C99.1345 171.581 101.196 176.399 102.319 178.101C99.5366 179.536 96.8849 177.866 95.9067 176.851C90.3642 166.418 93.4615 156.909 100.906 147.943Z" stroke="#270035" stroke-width="3"/>
<path d="M156.82 147.237C155.255 140.325 158.704 137.981 160.624 137.673C171.111 140.173 178.284 144.629 182.903 150.823C187.521 157.018 189.097 160.495 188.771 166.255C188.51 170.863 183.736 173.863 181.381 174.786C182.196 171.599 182.359 163.68 176.491 157.507C170.622 151.334 160.932 148.088 156.82 147.237Z" stroke="#270035" stroke-width="3"/>
<path d="M166.873 139.684C165.224 140.608 162.352 143.857 164.047 149.465M172.796 142.346C171.148 143.216 168.123 146.357 169.209 151.964M177.849 145.77C176.563 147.001 173.861 150.443 173.339 154.355M182.903 150.714C182.305 152.544 180.338 156.594 177.252 158.159M187.087 157.344C186.924 159.028 185.413 162.712 180.675 163.973M181.707 167.288C182.957 168.121 186.141 169.157 188.88 166.636M114.654 139.521C116.211 140.046 119.142 142.694 118.403 149.084M109.002 141.857C110.578 142.998 113.589 146.563 113.024 151.693M103.786 145.281C105.253 146.73 108.231 150.595 108.405 154.464M98.7869 151.04C99.3665 152.743 101.373 156.474 104.764 157.778M94.9833 157.452C95.2731 159.227 96.7547 162.951 100.363 163.647M93.1357 168.429C94.7659 168.719 98.3631 168.907 99.7107 167.342M94.603 174.08C95.6173 174.569 98.1459 174.971 100.146 172.667" stroke="#270035" stroke-width="2"/>
<path d="M129.597 139.738C130.394 140.952 131.574 144.357 129.923 148.269" stroke="#270035"/>
<path d="M152.365 139.955C151.531 141.477 150.278 145.27 151.93 148.269" stroke="#270035"/>
<path d="M68.4752 147.852L68.2057 148.879L69.2463 149.087C72.1355 149.665 74.5845 149.394 76.6291 148.512C78.6675 147.632 80.2328 146.177 81.4135 144.497C83.7553 141.166 84.6547 136.856 84.7867 133.914L84.821 133.152L84.0944 132.918L74.3136 129.766L73.3079 129.442L73.0396 130.464L68.4752 147.852Z" fill="#DEDEDE" stroke="#270035" stroke-width="2"/>
<path d="M180.458 179.134C181.675 174.7 185.167 172.07 186.761 171.309C188.174 174.714 190.478 182.133 188.391 184.567C186.305 187.002 182.957 187.973 181.545 188.154C180.675 186.994 179.241 183.568 180.458 179.134Z" fill="#9E0BCF" stroke="#270035" stroke-width="3"/>
<path d="M184.234 174.756L184.319 175.712L185.222 176.036C186.441 176.472 188.338 177.141 190.069 177.728C191.739 178.296 193.41 178.841 194.074 178.974C194.454 179.05 195.697 179.165 197.278 179.299C198.927 179.438 201.095 179.608 203.451 179.787C208.164 180.145 213.642 180.539 217.248 180.793L218.168 180.858L218.641 180.066L221.14 175.882L221.585 175.137L221.162 174.381C220.182 172.628 217.871 170.286 214.693 168.306C211.476 166.302 207.238 164.585 202.305 164.216C192.399 163.476 186.371 168.558 184.315 171.272L183.965 171.734L184.017 172.311L184.234 174.756Z" fill="#DEDEDE" stroke="#270035" stroke-width="3"/>
<path fill-rule="evenodd" clip-rule="evenodd" d="M82.0934 133.323C81.4916 137.986 78.5766 144.79 70.4135 144.41L69.4434 148.106C80.311 150.28 83.5351 139.521 83.7887 133.87L82.0934 133.323Z" fill="#BA016B"/>
<path d="M72.541 134.087L83.6804 137.782" stroke="#270035"/>
<path fill-rule="evenodd" clip-rule="evenodd" d="M212.265 145.606C204.06 145.772 200.584 139.218 199.845 134.201L198.171 134.685C197.863 136.731 198.116 141.77 201.594 145.552C205.072 149.334 210.687 150.171 213.059 150.117C212.9 149.151 212.613 147.489 212.265 145.606Z" fill="#9E0BCE"/>
<path d="M197.602 138.624C197.906 138.711 206.305 136.106 209.909 134.984" stroke="#270035"/>
<path fill-rule="evenodd" clip-rule="evenodd" d="M214.8 170.167C197.567 165.792 190.412 171.558 188.987 175.004L189.235 175.857C187.923 175.404 186.636 174.949 185.727 174.623L185.51 172.178C187.321 169.787 192.889 165.016 202.192 165.712C207.317 166.095 211.66 168.024 214.8 170.167Z" fill="#9E0BCF"/>
<path d="M184.207 185.763C184.946 189.414 187.992 191.595 189.423 192.229C191.705 191.957 192.575 187.393 192.521 185.274C192.477 183.578 193.227 177.793 193.608 175.112C191.869 172.83 189.152 172.232 186.924 174.189C184.696 176.145 183.283 181.198 184.207 185.763Z" fill="#DEDEDE"/>
<path d="M193.444 186.089C193.531 183.872 194.133 178.355 194.423 175.873C194.749 174.714 196.151 172.45 199.15 172.667C202.899 172.939 203.008 179.514 202.573 184.676C202.139 189.838 200.237 194.783 197.357 194.783C194.477 194.783 193.336 188.86 193.444 186.089Z" fill="#DEDEDE"/>
<path d="M203.877 186.524C204.04 184.893 203.877 177.395 203.714 177.177C203.541 175.047 205.634 174.66 206.703 174.732C211.865 175.982 211.811 182.448 210.833 187.502C209.855 192.555 207.681 194.946 204.693 194.511C201.704 194.077 203.714 188.154 203.877 186.524Z" fill="#DEDEDE"/>
<path d="M211.485 191.686C213.18 185.817 212.698 179.858 212.246 177.612C215.854 174.786 218.422 177.304 219.255 178.916C220.472 185.741 217.698 191.396 216.158 193.37C213.332 194.761 211.865 192.827 211.485 191.686Z" fill="#DEDEDE"/>
<path d="M184.207 185.763C184.946 189.414 187.992 191.595 189.423 192.229C191.705 191.957 192.575 187.393 192.521 185.274C192.477 183.578 193.227 177.793 193.608 175.112C191.869 172.83 189.152 172.232 186.924 174.189C184.696 176.145 183.283 181.198 184.207 185.763Z" stroke="#270035" stroke-width="3"/>
<path d="M193.444 186.089C193.531 183.872 194.133 178.355 194.423 175.873C194.749 174.714 196.151 172.45 199.15 172.667C202.899 172.939 203.008 179.514 202.573 184.676C202.139 189.838 200.237 194.783 197.357 194.783C194.477 194.783 193.336 188.86 193.444 186.089Z" stroke="#270035" stroke-width="3"/>
<path d="M203.877 186.524C204.04 184.893 203.877 177.395 203.714 177.177C203.541 175.047 205.634 174.66 206.703 174.732C211.865 175.982 211.811 182.448 210.833 187.502C209.855 192.555 207.681 194.946 204.693 194.511C201.704 194.077 203.714 188.154 203.877 186.524Z" stroke="#270035" stroke-width="3"/>
<path d="M211.485 191.686C213.18 185.817 212.698 179.858 212.246 177.612C215.854 174.786 218.422 177.304 219.255 178.916C220.472 185.741 217.698 191.396 216.158 193.37C213.332 194.761 211.865 192.827 211.485 191.686Z" stroke="#270035" stroke-width="3"/>
<path d="M184.532 178.21C185.909 177.829 189.531 177.569 193.009 179.568M194.259 177.938C195.889 177.34 199.856 176.743 202.681 179.134M204.04 179.84C205.471 179.532 208.919 179.373 211.267 181.198M212.843 181.307C214.165 180.999 217.342 180.927 219.472 183.1" stroke="#270035"/>
<defs>
<linearGradient id="paint0_linear_617_98" x1="92.8758" y1="-2.77236" x2="249.645" y2="274.933" gradientUnits="userSpaceOnUse">
<stop stop-color="#B20487"/>
<stop offset="1" stop-color="#9E0BCF"/>
</linearGradient>
<linearGradient id="paint1_linear_617_98" x1="75.6927" y1="75.6731" x2="234.796" y2="214.779" gradientUnits="userSpaceOnUse">
<stop stop-color="#BA016B"/>
<stop offset="1" stop-color="#9E0BCF"/>
</linearGradient>
<linearGradient id="paint2_linear_617_98" x1="140.378" y1="142.727" x2="140.378" y2="193.588" gradientUnits="userSpaceOnUse">
<stop stop-color="#BCBCBD"/>
<stop offset="1" stop-color="white"/>
</linearGradient>
<linearGradient id="paint3_linear_617_98" x1="140.981" y1="52.8357" x2="140.981" y2="74.4233" gradientUnits="userSpaceOnUse">
<stop stop-color="#FFFFFE"/>
<stop offset="0.828125" stop-color="#DEDEDE"/>
</linearGradient>
<linearGradient id="paint4_linear_617_98" x1="114.707" y1="149.573" x2="168.937" y2="149.573" gradientUnits="userSpaceOnUse">
<stop stop-color="#B70176"/>
<stop offset="1" stop-color="#A10AC6"/>
</linearGradient>
<linearGradient id="paint5_linear_617_98" x1="116.009" y1="68.684" x2="167.198" y2="68.684" gradientUnits="userSpaceOnUse">
<stop stop-color="#BA006B"/>
<stop offset="1" stop-color="#9E0BCF"/>
</linearGradient>
<linearGradient id="paint6_linear_617_98" x1="105.579" y1="102.082" x2="170.133" y2="102.082" gradientUnits="userSpaceOnUse">
<stop stop-color="#BA006B"/>
<stop offset="1" stop-color="#9E0BCF"/>
</linearGradient>
<linearGradient id="paint7_linear_617_98" x1="180.784" y1="96.4305" x2="101.884" y2="95.1263" gradientUnits="userSpaceOnUse">
<stop stop-color="#9E0BCF"/>
<stop offset="1" stop-color="#BA006B"/>
</linearGradient>
<linearGradient id="paint8_linear_617_98" x1="109.6" y1="86.6495" x2="173.719" y2="86.6495" gradientUnits="userSpaceOnUse">
<stop stop-color="#B20386"/>
<stop offset="1" stop-color="#9E0BCF"/>
</linearGradient>
</defs>
</svg>
