<svg width="183" height="182" viewBox="0 0 183 182" fill="none" xmlns="http://www.w3.org/2000/svg">
<circle cx="91.5005" cy="90.842" r="90.5141" fill="#EC617A"/>
<path d="M100.949 51.5484C97.1498 55.1244 90.8919 56.7635 88.2379 57.136C90.3336 55.3201 91.0314 49.3133 91.3107 42.4685C91.5901 35.6237 98.2952 32.1315 102.626 35.9031C106.956 39.6747 105.699 47.0783 100.949 51.5484Z" fill="#1A1F2C"/>
<path d="M119.388 55.739C118.718 57.974 115.57 61.1403 114.08 62.4441C117.712 66.3554 127.49 63.1425 130.144 58.5328C132.798 53.923 130.144 47.7767 126.932 47.7767C123.719 47.7767 120.226 52.9452 119.388 55.739Z" fill="#1A1F2C"/>
<path d="M133.497 73.0605C129.139 73.1722 124.045 76.6458 122.042 78.3687C124.371 79.3465 130.368 81.5536 135.732 82.5594C142.437 83.8166 148.164 80.1846 147.047 76.9718C145.929 73.7589 138.945 72.9208 133.497 73.0605Z" fill="#1A1F2C"/>
<path d="M53.3152 54.7612C50.8567 49.6206 51.2665 41.9098 51.7787 38.6969C52.3375 37.7191 53.7904 36.4619 55.1314 39.2557C56.8077 42.7479 58.484 45.5417 63.3731 50.9896C68.2622 56.4375 69.3797 60.2091 64.77 62.025C60.1602 63.841 56.3884 61.1869 53.3152 54.7612Z" fill="#1A1F2C"/>
<path d="M47.4485 80.8831C45.1017 79.4303 39.6725 73.6658 37.2512 70.9651C34.7365 73.3399 35.7148 82.0006 40.1849 87.5882C44.655 93.1757 49.4044 93.3154 51.2204 89.4041C53.0363 85.4928 50.382 82.699 47.4485 80.8831Z" fill="#1A1F2C"/>
<path d="M37.8099 100.44C33.6193 99.6015 32.3621 104.91 33.2002 108.402C33.9917 109.845 36.5247 113.375 40.3243 115.945C45.0737 119.158 52.8963 114.129 55.4107 111.615C57.9251 109.1 56.2489 105.189 52.1979 105.189C48.1469 105.189 42.0006 101.278 37.8099 100.44Z" fill="#1A1F2C"/>
<path d="M52.1979 124.466C49.8511 125.137 49.8232 128.377 50.1025 129.914C55.4107 134.105 63.7921 125.584 64.3509 122.371C64.9096 119.158 62.5349 118.599 60.5792 120.136C58.6236 121.672 55.1314 123.628 52.1979 124.466Z" fill="#1A1F2C"/>
<path d="M71.7544 130.892C70.0781 133.686 70.0316 139.04 70.2178 141.369C71.0559 146.258 78.7388 141.788 80.1357 139.273C81.5326 136.759 86.1424 128.238 84.4661 127.26C82.7898 126.282 73.8497 127.4 71.7544 130.892Z" fill="#1A1F2C"/>
<path d="M99.5526 132.009C99.6643 136.479 101.741 140.018 102.765 141.229C108.074 146.537 112.683 144.581 112.404 140.67C112.125 136.759 111.426 129.774 107.655 127.819C103.883 125.863 99.4129 126.422 99.5526 132.009Z" fill="#1A1F2C"/>
<path d="M131.402 110.777C126.932 110.665 123.486 112.686 122.322 113.71C124.65 116.085 130.228 121.505 133.916 124.187C138.526 127.539 142.297 123.349 141.32 119.856C140.342 116.364 136.989 110.916 131.402 110.777Z" fill="#1A1F2C"/>
<path d="M91.73 95.4108C88.6009 91.8347 90.9849 86.4707 92.5681 84.2356C93.4062 78.0893 89.914 76.2733 84.047 78.3687C78.1801 80.464 74.9672 92.4773 83.9074 99.0427C92.8475 105.608 110.029 101.417 114.08 87.0294C118.131 72.6414 107.096 63.2822 96.4794 61.1869C87.9863 59.5106 75.4329 62.0716 70.2178 63.5616C60.2999 72.5017 55.8298 95.5505 66.1668 107.983C76.5038 120.415 93.965 121.533 106.118 118.04C118.271 114.548 129.027 101.278 128.748 95.2711C128.468 89.2644 119.947 90.1026 117.572 94.0139C115.198 97.9252 112.404 106.726 103.324 109.938C94.2444 113.151 82.3708 113.431 76.3641 99.6015C70.3575 85.7722 79.8564 71.1048 82.5105 69.0095C85.1646 66.9142 89.0759 66.6348 94.3841 69.9873C99.6922 73.3399 104.023 82.9784 103.464 88.8454C102.905 94.7123 95.6413 99.8808 91.73 95.4108Z" fill="#1A1F2C"/>
</svg>
