<svg width="183" height="182" viewBox="0 0 183 182" fill="none" xmlns="http://www.w3.org/2000/svg">
<circle cx="91.5005" cy="91.344" r="90.5141" fill="#63CF72"/>
<path fill-rule="evenodd" clip-rule="evenodd" d="M56.1029 67.3371L95.8818 50.567L89.6485 42.833C88.4357 42.4351 85.5532 41.992 83.7251 43.4024C81.897 44.8128 64.5486 59.9465 56.1029 67.3371ZM101.878 53.2451L62.1621 68.3767L110.764 61.7075C110.457 60.0897 109.5 56.457 108.125 54.868C106.75 53.279 103.387 53.124 101.878 53.2451ZM49.3749 84.5204C48.429 81.3339 47.1691 74.8269 49.6965 74.2908C52.2239 73.7546 99.0629 66.5922 122.167 63.0781C123.229 62.921 125.548 63.6374 126.32 67.7592C127.092 71.881 127.459 77.773 127.547 80.2038L108.898 82.8563C107.34 83.7992 104.416 86.9802 105.181 92.1619C105.297 92.9416 105.404 93.7077 105.509 94.456C106.274 99.9243 106.907 104.444 109.523 106.387C112.496 108.595 117.552 108.357 122.106 107.481C125.75 106.78 130.058 106.171 131.757 105.954L133.759 119.506C133.651 120.845 132.149 123.633 127 124.068C121.851 124.502 80.5913 130.651 60.6052 133.67C59.3234 133.724 56.5416 132.906 55.6694 129.207C54.7971 125.507 51.1096 97.8743 49.3749 84.5204ZM109.627 95.3745L108.7 89.0967C108.777 88.2369 109.588 86.4201 112.218 86.0315C114.849 85.643 126.365 84.1458 131.793 83.4458C132.616 83.7316 134.411 85.0346 135.006 87.9606C135.601 90.8866 136.146 97.0579 136.344 99.7779C135.392 100.224 133.393 101.171 133.018 101.389C132.549 101.662 113.347 104.702 111.657 102.915C110.306 101.485 109.741 97.2923 109.627 95.3745ZM114.085 95.2252C114.017 93.8436 114.376 90.9869 116.357 90.613C118.834 90.1456 121.856 90.6156 122.397 93.5903C122.938 96.565 119.701 98.7743 117.734 98.5557C116.16 98.3808 114.646 96.2625 114.085 95.2252Z" fill="#1A1F2C"/>
</svg>
