<svg width="246" height="27" viewBox="0 0 246 27" fill="none" xmlns="http://www.w3.org/2000/svg">
<path d="M10.916 26.0604C8.516 26.0604 6.524 25.7244 4.94 25.0524C3.356 24.3564 2.156 23.4564 1.34 22.3524C0.524 21.2484 0.092 20.0724 0.044 18.8244C0.044 18.6324 0.116 18.4644 0.26 18.3204C0.428 18.1524 0.62 18.0684 0.836 18.0684H5.372C5.708 18.0684 5.96 18.1284 6.128 18.2484C6.32 18.3684 6.488 18.5244 6.632 18.7164C6.824 19.0764 7.088 19.4244 7.424 19.7604C7.784 20.0964 8.24 20.3724 8.792 20.5884C9.368 20.7804 10.076 20.8764 10.916 20.8764C12.308 20.8764 13.352 20.6604 14.048 20.2284C14.768 19.7964 15.128 19.2084 15.128 18.4644C15.128 17.9364 14.936 17.5044 14.552 17.1684C14.168 16.8084 13.544 16.4964 12.68 16.2324C11.84 15.9444 10.712 15.6564 9.296 15.3684C7.472 14.9844 5.912 14.4924 4.616 13.8924C3.344 13.2684 2.372 12.4644 1.7 11.4804C1.028 10.4724 0.692 9.22444 0.692 7.73644C0.692 6.27244 1.1 4.96444 1.916 3.81244C2.756 2.66044 3.92 1.76044 5.408 1.11244C6.896 0.464438 8.66 0.140438 10.7 0.140438C12.356 0.140438 13.808 0.356438 15.056 0.788438C16.328 1.22044 17.396 1.79644 18.26 2.51644C19.124 3.23644 19.772 4.00444 20.204 4.82044C20.66 5.61244 20.9 6.39244 20.924 7.16044C20.924 7.35244 20.852 7.53244 20.708 7.70044C20.564 7.84444 20.384 7.91644 20.168 7.91644H15.416C15.152 7.91644 14.924 7.86844 14.732 7.77244C14.54 7.67644 14.372 7.52044 14.228 7.30444C14.084 6.77644 13.7 6.32044 13.076 5.93644C12.476 5.52844 11.684 5.32444 10.7 5.32444C9.644 5.32444 8.816 5.51644 8.216 5.90044C7.64 6.26044 7.352 6.82444 7.352 7.59244C7.352 8.07244 7.508 8.49244 7.82 8.85244C8.156 9.21244 8.696 9.52444 9.44 9.78844C10.208 10.0524 11.252 10.3284 12.572 10.6164C14.756 11.0244 16.52 11.5404 17.864 12.1644C19.208 12.7644 20.192 13.5564 20.816 14.5404C21.44 15.5004 21.752 16.7124 21.752 18.1764C21.752 19.8084 21.284 21.2244 20.348 22.4244C19.436 23.6004 18.164 24.5004 16.532 25.1244C14.9 25.7484 13.028 26.0604 10.916 26.0604ZM26.2559 25.7004C25.9919 25.7004 25.7759 25.6164 25.6079 25.4484C25.4399 25.2804 25.3559 25.0644 25.3559 24.8004V1.40044C25.3559 1.13644 25.4399 0.920438 25.6079 0.752439C25.7759 0.584438 25.9919 0.500438 26.2559 0.500438H43.0679C43.3319 0.500438 43.5479 0.584438 43.7159 0.752439C43.8839 0.920438 43.9679 1.13644 43.9679 1.40044V4.78444C43.9679 5.04844 43.8839 5.26444 43.7159 5.43244C43.5479 5.60044 43.3319 5.68444 43.0679 5.68444H31.5839V10.5444H42.2759C42.5399 10.5444 42.7559 10.6404 42.9239 10.8324C43.0919 11.0004 43.1759 11.2164 43.1759 11.4804V14.6124C43.1759 14.8524 43.0919 15.0684 42.9239 15.2604C42.7559 15.4284 42.5399 15.5124 42.2759 15.5124H31.5839V20.5164H43.3559C43.6199 20.5164 43.8359 20.6004 44.0039 20.7684C44.1719 20.9364 44.2559 21.1524 44.2559 21.4164V24.8004C44.2559 25.0644 44.1719 25.2804 44.0039 25.4484C43.8359 25.6164 43.6199 25.7004 43.3559 25.7004H26.2559ZM58.4692 26.0604C56.1892 26.0604 54.2332 25.6884 52.6012 24.9444C50.9932 24.2004 49.7332 23.1084 48.8212 21.6684C47.9332 20.2284 47.4412 18.4404 47.3452 16.3044C47.3212 15.3204 47.3092 14.2644 47.3092 13.1364C47.3092 12.0084 47.3212 10.9284 47.3452 9.89644C47.4412 7.80844 47.9452 6.04444 48.8572 4.60444C49.7692 3.14044 51.0412 2.03644 52.6732 1.29244C54.3052 0.524438 56.2372 0.140438 58.4692 0.140438C60.0532 0.140438 61.5172 0.344438 62.8612 0.752439C64.2052 1.13644 65.3812 1.71244 66.3892 2.48044C67.3972 3.22444 68.1772 4.13644 68.7292 5.21644C69.3052 6.27244 69.6052 7.47244 69.6292 8.81644C69.6532 9.03244 69.5812 9.21244 69.4132 9.35644C69.2692 9.50044 69.0892 9.57244 68.8732 9.57244H64.0132C63.7012 9.57244 63.4612 9.51244 63.2932 9.39244C63.1252 9.24844 62.9812 8.99644 62.8612 8.63644C62.5252 7.36444 61.9732 6.50044 61.2052 6.04444C60.4612 5.56444 59.5372 5.32444 58.4332 5.32444C57.1132 5.32444 56.0692 5.69644 55.3012 6.44044C54.5332 7.16044 54.1132 8.37244 54.0412 10.0764C53.9692 12.0444 53.9692 14.0604 54.0412 16.1244C54.1132 17.8284 54.5332 19.0524 55.3012 19.7964C56.0692 20.5164 57.1132 20.8764 58.4332 20.8764C59.5372 20.8764 60.4732 20.6364 61.2412 20.1564C62.0092 19.6764 62.5492 18.8124 62.8612 17.5644C62.9572 17.2044 63.0892 16.9644 63.2572 16.8444C63.4492 16.7004 63.7012 16.6284 64.0132 16.6284H68.8732C69.0892 16.6284 69.2692 16.7004 69.4132 16.8444C69.5812 16.9884 69.6532 17.1684 69.6292 17.3844C69.6052 18.7284 69.3052 19.9404 68.7292 21.0204C68.1772 22.0764 67.3972 22.9884 66.3892 23.7564C65.3812 24.5004 64.2052 25.0764 62.8612 25.4844C61.5172 25.8684 60.0532 26.0604 58.4692 26.0604ZM74.3145 25.7004C74.0505 25.7004 73.8345 25.6164 73.6665 25.4484C73.4985 25.2804 73.4145 25.0644 73.4145 24.8004V1.40044C73.4145 1.13644 73.4985 0.920438 73.6665 0.752439C73.8345 0.584438 74.0505 0.500438 74.3145 0.500438H84.1065C87.2025 0.500438 89.6385 1.22044 91.4145 2.66044C93.2145 4.07644 94.1145 6.09244 94.1145 8.70844C94.1145 10.4124 93.6945 11.8524 92.8545 13.0284C92.0385 14.2044 90.9585 15.0924 89.6145 15.6924L94.5825 24.5484C94.6545 24.6924 94.6905 24.8244 94.6905 24.9444C94.6905 25.1364 94.6065 25.3164 94.4385 25.4844C94.2945 25.6284 94.1145 25.7004 93.8985 25.7004H89.1465C88.6905 25.7004 88.3545 25.5924 88.1385 25.3764C87.9225 25.1364 87.7665 24.9204 87.6705 24.7284L83.5665 16.8084H79.8585V24.8004C79.8585 25.0644 79.7745 25.2804 79.6065 25.4484C79.4385 25.6164 79.2225 25.7004 78.9585 25.7004H74.3145ZM79.8585 11.7324H84.0345C85.1625 11.7324 86.0025 11.4564 86.5545 10.9044C87.1305 10.3524 87.4185 9.59644 87.4185 8.63644C87.4185 7.70044 87.1425 6.94444 86.5905 6.36844C86.0625 5.79244 85.2105 5.50444 84.0345 5.50444H79.8585V11.7324ZM99.2052 25.7004C98.9412 25.7004 98.7252 25.6164 98.5572 25.4484C98.3892 25.2804 98.3052 25.0644 98.3052 24.8004V1.40044C98.3052 1.13644 98.3892 0.920438 98.5572 0.752439C98.7252 0.584438 98.9412 0.500438 99.2052 0.500438H116.017C116.281 0.500438 116.497 0.584438 116.665 0.752439C116.833 0.920438 116.917 1.13644 116.917 1.40044V4.78444C116.917 5.04844 116.833 5.26444 116.665 5.43244C116.497 5.60044 116.281 5.68444 116.017 5.68444H104.533V10.5444H115.225C115.489 10.5444 115.705 10.6404 115.873 10.8324C116.041 11.0004 116.125 11.2164 116.125 11.4804V14.6124C116.125 14.8524 116.041 15.0684 115.873 15.2604C115.705 15.4284 115.489 15.5124 115.225 15.5124H104.533V20.5164H116.305C116.569 20.5164 116.785 20.6004 116.953 20.7684C117.121 20.9364 117.205 21.1524 117.205 21.4164V24.8004C117.205 25.0644 117.121 25.2804 116.953 25.4484C116.785 25.6164 116.569 25.7004 116.305 25.7004H99.2052ZM127.741 25.7004C127.477 25.7004 127.261 25.6164 127.093 25.4484C126.925 25.2804 126.841 25.0644 126.841 24.8004V6.15244H120.433C120.169 6.15244 119.953 6.06844 119.785 5.90044C119.617 5.70844 119.533 5.49244 119.533 5.25244V1.40044C119.533 1.13644 119.617 0.920438 119.785 0.752439C119.953 0.584438 120.169 0.500438 120.433 0.500438H139.801C140.065 0.500438 140.281 0.584438 140.449 0.752439C140.617 0.920438 140.701 1.13644 140.701 1.40044V5.25244C140.701 5.49244 140.617 5.70844 140.449 5.90044C140.281 6.06844 140.065 6.15244 139.801 6.15244H133.393V24.8004C133.393 25.0644 133.309 25.2804 133.141 25.4484C132.973 25.6164 132.757 25.7004 132.493 25.7004H127.741ZM145.629 25.7004C145.389 25.7004 145.197 25.6284 145.053 25.4844C144.909 25.3404 144.837 25.1484 144.837 24.9084V1.29244C144.837 1.05244 144.909 0.860439 145.053 0.716439C145.197 0.572438 145.389 0.500438 145.629 0.500438H146.313C146.553 0.500438 146.745 0.572438 146.889 0.716439C147.033 0.860439 147.105 1.05244 147.105 1.29244V23.5404H159.525C159.789 23.5404 159.993 23.6124 160.137 23.7564C160.281 23.9004 160.353 24.1044 160.353 24.3684V24.9084C160.353 25.1484 160.281 25.3404 160.137 25.4844C159.993 25.6284 159.789 25.7004 159.525 25.7004H145.629ZM165.352 25.7004C165.112 25.7004 164.92 25.6284 164.776 25.4844C164.632 25.3404 164.56 25.1484 164.56 24.9084V1.32844C164.56 1.06444 164.632 0.860439 164.776 0.716439C164.92 0.572438 165.112 0.500438 165.352 0.500438H179.392C179.656 0.500438 179.86 0.572438 180.004 0.716439C180.148 0.860439 180.22 1.06444 180.22 1.32844V1.86844C180.22 2.10844 180.148 2.30044 180.004 2.44444C179.86 2.58844 179.656 2.66044 179.392 2.66044H166.828V11.8404H178.6C178.864 11.8404 179.068 11.9124 179.212 12.0564C179.356 12.2004 179.428 12.4044 179.428 12.6684V13.2084C179.428 13.4484 179.356 13.6404 179.212 13.7844C179.068 13.9284 178.864 14.0004 178.6 14.0004H166.828V23.5404H179.68C179.944 23.5404 180.148 23.6124 180.292 23.7564C180.436 23.9004 180.508 24.1044 180.508 24.3684V24.9084C180.508 25.1484 180.436 25.3404 180.292 25.4844C180.148 25.6284 179.944 25.7004 179.68 25.7004H165.352ZM193.109 25.7004C192.797 25.7004 192.545 25.6284 192.353 25.4844C192.161 25.3404 192.005 25.1244 191.885 24.8364L183.533 1.61644C183.485 1.47244 183.461 1.34044 183.461 1.22044C183.461 1.02844 183.533 0.860439 183.677 0.716439C183.821 0.572438 183.989 0.500438 184.181 0.500438H184.937C185.177 0.500438 185.357 0.572438 185.477 0.716439C185.621 0.836439 185.705 0.944438 185.729 1.04044L193.613 23.0724L201.497 1.04044C201.545 0.944438 201.629 0.836439 201.749 0.716439C201.869 0.572438 202.049 0.500438 202.289 0.500438H203.045C203.237 0.500438 203.405 0.572438 203.549 0.716439C203.693 0.860439 203.765 1.02844 203.765 1.22044C203.765 1.34044 203.741 1.47244 203.693 1.61644L195.341 24.8364C195.245 25.1244 195.101 25.3404 194.909 25.4844C194.717 25.6284 194.453 25.7004 194.117 25.7004H193.109ZM209.262 25.7004C209.022 25.7004 208.83 25.6284 208.686 25.4844C208.542 25.3404 208.47 25.1484 208.47 24.9084V1.32844C208.47 1.06444 208.542 0.860439 208.686 0.716439C208.83 0.572438 209.022 0.500438 209.262 0.500438H223.302C223.566 0.500438 223.77 0.572438 223.914 0.716439C224.058 0.860439 224.13 1.06444 224.13 1.32844V1.86844C224.13 2.10844 224.058 2.30044 223.914 2.44444C223.77 2.58844 223.566 2.66044 223.302 2.66044H210.738V11.8404H222.51C222.774 11.8404 222.978 11.9124 223.122 12.0564C223.266 12.2004 223.338 12.4044 223.338 12.6684V13.2084C223.338 13.4484 223.266 13.6404 223.122 13.7844C222.978 13.9284 222.774 14.0004 222.51 14.0004H210.738V23.5404H223.59C223.854 23.5404 224.058 23.6124 224.202 23.7564C224.346 23.9004 224.418 24.1044 224.418 24.3684V24.9084C224.418 25.1484 224.346 25.3404 224.202 25.4844C224.058 25.6284 223.854 25.7004 223.59 25.7004H209.262ZM230.567 25.7004C230.327 25.7004 230.135 25.6284 229.991 25.4844C229.847 25.3404 229.775 25.1484 229.775 24.9084V1.29244C229.775 1.05244 229.847 0.860439 229.991 0.716439C230.135 0.572438 230.327 0.500438 230.567 0.500438H231.251C231.491 0.500438 231.683 0.572438 231.827 0.716439C231.971 0.860439 232.043 1.05244 232.043 1.29244V23.5404H244.463C244.727 23.5404 244.931 23.6124 245.075 23.7564C245.219 23.9004 245.291 24.1044 245.291 24.3684V24.9084C245.291 25.1484 245.219 25.3404 245.075 25.4844C244.931 25.6284 244.727 25.7004 244.463 25.7004H230.567Z" fill="#FACB07"/>
</svg>
