<svg width="200" height="200" viewBox="0 0 200 200" fill="none" xmlns="http://www.w3.org/2000/svg">
<circle cx="100.121" cy="99.6943" r="99.6239" fill="#FDCB1E"/>
<path fill-rule="evenodd" clip-rule="evenodd" d="M79.1945 34.8613C75.7235 34.2719 67.7601 34.3898 63.6743 39.5762C59.5885 44.7625 61.0555 50.2501 62.2997 52.3456C56.8644 53.0005 46.1509 56.9033 46.7795 67.276C47.4082 77.6487 62.6263 79.718 70.1568 79.4561C68.3232 75.0032 66.1884 64.1721 72.3178 56.4711C79.9794 46.845 93.9276 49.7917 98.446 60.2037L102.179 61.186C102.31 55.9473 102.296 45.2733 101.196 44.4875C100.947 44.3094 100.691 44.1507 100.438 43.9937L100.438 43.9937C99.2963 43.2852 98.2139 42.6136 98.0531 40.362C97.8959 38.1617 98.1186 23.3361 98.2495 16.1983C98.7079 23.4671 100.018 38.3189 101.589 39.5762C103.161 40.8335 105.256 40.231 106.108 39.7726V62.5612C107.221 60.7276 110.547 57.532 114.948 59.4179C120.449 61.7753 125.36 60.0073 124.378 55.4889C123.592 51.8741 118.55 50.1846 116.127 49.7917L118.681 35.4507L119.466 48.0237C121.824 47.5653 127.207 47.1593 129.878 49.2024C132.55 51.2455 132.563 54.6376 132.236 56.0782L136.165 58.4356C139.636 57.3879 147.716 56.9819 152.274 63.7399C156.832 70.4978 154.959 77.557 153.453 80.2419C153.78 82.1409 154.199 86.6855 153.256 89.6716C152.313 92.6577 149.72 94.452 148.541 94.9759C151.619 98.7739 156.557 108.492 151.685 116.979C146.813 125.465 141.666 127.456 139.701 127.391L153.06 139.964L135.968 129.159C135.379 132.957 133.218 140.946 129.289 142.517C125.36 144.089 125.949 146.708 126.735 147.822L142.844 190.059L122.413 147.429L123.199 143.696C119.99 144.547 113.416 144.05 112.787 135.249L105.518 138.785C105.055 148.968 104.214 167.994 104.133 171.746C103.927 168.12 102.016 150.348 101 141.142C97.0053 143.631 87.7589 146.643 82.7298 138.785C78.2768 140.749 70.0782 146.486 72.9071 153.715C75.736 160.945 88.7543 156.858 94.9098 153.912C92.1595 157.579 84.8514 164.795 77.622 164.324C70.3925 163.852 68.3232 154.959 68.1923 150.572C65.4419 151.227 59.9412 150.611 59.9412 142.91C55.8812 143.041 46.7789 141.457 42.8499 134.07C38.9208 126.683 41.4743 122.086 43.2422 120.711C38.1343 119.794 27.1328 116.35 23.9895 109.906C20.8463 103.463 20.9769 100.149 21.4351 99.2978C19.2086 96.0236 15.1877 87.4321 16.9164 79.2596C19.0774 69.0441 33.6146 45.8627 57.3854 47.0414C57.6473 44.0946 59.4285 37.4545 64.4577 34.4684C69.4869 31.4823 76.3778 33.4861 79.1945 34.8613ZM104.143 172.378C104.157 172.31 104.153 172.092 104.133 171.746C104.122 172.241 104.125 172.47 104.143 172.378ZM128.502 67.276C129.759 61.7754 126.276 61.186 124.377 61.5789C127.678 58.4358 130.467 61.5789 131.449 63.5433C132.431 61.5788 136.203 58.2784 143.432 60.793C150.662 63.3076 150.243 71.2705 149.13 74.9376C147.244 60.793 134.592 63.9363 128.502 67.276ZM143.04 80.4382C140.053 74.466 133.544 75.8543 130.663 77.2949C134.396 77.8843 141.271 84.1708 137.146 86.9211C133.846 89.1214 130.925 86.5282 129.877 84.9566C130.99 87.9034 134.121 93.797 137.735 93.797C142.254 93.797 146.772 87.9034 143.04 80.4382ZM82.5321 80.2417C80.5021 78.6701 76.3635 74.2303 76.0492 69.0439C75.6563 62.561 80.7633 66.49 80.7633 70.6155C80.7633 74.741 81.1557 77.4914 85.8706 79.6524C84.6919 76.1162 83.9846 68.8082 90.5854 67.8652C97.1863 66.9222 102.766 76.902 104.73 82.0098C106.302 81.0275 110.349 79.7309 113.963 82.4027C117.578 85.0745 117.827 89.2785 117.499 91.0466C120.381 89.475 126.536 88.1784 128.108 95.565C129.68 102.952 124.703 102.179 122.018 100.869L119.268 103.816C121.167 104.078 125.122 105.663 125.75 109.906L129.483 106.37C129.745 108.334 131.408 112.499 135.966 113.442C140.524 114.385 145.33 113.573 147.164 113.049C145.134 114.228 140.131 116.625 136.359 116.782C132.587 116.939 129.549 117.633 128.501 117.961L124.572 114.621C125.881 116.716 127.597 121.497 123.982 123.854C120.368 126.212 119.202 131.254 119.071 133.48C115.797 133.022 108.816 130.376 107.087 123.461C109.51 123.396 114.906 121.929 117.107 116.585C119.307 111.242 116.452 106.894 114.749 105.388C116.517 101.982 118.364 93.797 111.606 88.2963C103.158 81.4204 94.5145 84.7601 92.3535 92.6182C88.7527 92.6182 81.7473 90.1429 82.5321 80.2417ZM34.5964 88.0998C26.8955 83.8564 26.4109 75.7233 27.1312 72.1871C24.3153 75.3959 18.8798 83.1099 19.6656 88.2963C20.4514 93.4826 24.4459 96.6128 26.345 97.5296C26.9736 107.274 38.656 108.138 44.4186 107.352C42.7815 108.007 39.8216 110.142 41.0789 113.442C42.3362 116.743 48.6751 115.996 51.6874 115.21C50.1812 115.865 47.4047 118.471 48.3477 123.658C49.2906 128.844 54.8961 129.879 57.5809 129.748C57.188 132.236 57.8953 137.409 63.8674 138.195C69.8396 138.981 76.3094 135.379 78.7978 133.48C78.5359 132.826 77.9334 131.005 77.6191 128.962C77.3048 126.919 77.8811 122.61 78.2085 120.711C78.7324 121.628 80.448 123.815 83.1198 125.229C85.7916 126.644 90.1266 124.247 91.9602 122.872L85.2808 134.856C86.525 133.022 89.7992 128.923 92.9424 127.194C96.0857 125.465 99.7528 124.902 101.193 124.836C104.009 121.104 108.03 111.831 101.586 104.602C93.5318 95.565 84.2985 98.9047 79.9766 105.584C76.519 110.928 78.143 115.014 79.3872 116.389C73.4936 112.656 74.083 107.745 77.8156 101.459C81.5482 95.1721 73.6901 89.6714 69.3681 95.7615C65.9105 100.634 70.8088 102.637 73.6901 103.03C70.3504 104.602 63.1209 106.134 60.9206 99.6905C58.7204 93.2469 63.54 89.4095 66.2249 88.2963C63.0161 88.0343 55.3021 86.6068 50.1157 82.9921C44.9294 79.3773 39.3108 74.0207 37.1499 71.7942C28.1916 78.3951 31.715 85.415 34.5964 88.0998ZM165.436 38.9865L149.131 51.756L151.095 56.6674L165.436 38.9865ZM160.721 147.821C160.25 157.251 147.821 161.966 141.665 163.145C150.937 164.559 160.197 157.448 163.668 153.715C169.234 153.388 180.642 149.707 181.742 137.606C182.842 125.504 175.914 119.991 172.312 118.746C173.255 117.018 172.705 112.918 172.312 111.085C172.312 114.856 168.514 118.812 166.615 120.318C174.473 120.711 181.742 129.748 177.027 140.749C173.255 149.55 164.585 149.131 160.721 147.821ZM156.792 92.4218L158.364 89.8679L185.082 86.5282L160.918 92.4218H156.792Z" fill="#FFDD66"/>
<path fill-rule="evenodd" clip-rule="evenodd" d="M53.2849 87.0793C55.3688 83.1411 60.7194 75.0634 65.4511 74.258C67.7965 73.8588 71.0046 74.6658 74.663 75.5861C80.2302 76.9867 86.8401 78.6495 93.0397 76.723C97.8474 75.2291 101.077 72.528 104.088 70.01C107.51 67.1471 110.65 64.5209 115.505 64.1744C124.63 63.523 140.564 77.2206 146.191 94.7782C151.818 112.336 153.355 124.259 146.134 127.012C141.345 128.838 133.967 123.836 128.169 119.904C125.224 117.908 122.688 116.188 121.104 115.778C120.52 115.627 119.995 115.477 119.5 115.336C116.01 114.339 114.025 113.772 103.524 116.287C100.073 117.114 96.8791 117.643 93.9819 118.123C86.811 119.311 81.4602 120.198 78.5544 124.54C77.9193 125.489 77.2146 126.632 76.445 127.88C72.2707 134.65 66.1888 144.513 58.9707 143.293C50.422 141.847 43.0218 120.344 53.2849 87.0793ZM61.2731 99.4594L69.3509 97.6936L67.8557 89.3145L75.3288 87.8337L77.1262 96.0703L85.2346 94.8767L86.5406 102.302L78.5268 103.972L79.9589 112.033L72.3748 113.371L70.6877 105.691L62.6266 107.123L61.2731 99.4594ZM114.504 90.812C116.655 90.3857 118.054 88.296 117.627 86.1445C117.201 83.993 115.111 82.5945 112.96 83.0208C110.808 83.4471 109.41 85.5369 109.836 87.6884C110.263 89.8399 112.352 91.2384 114.504 90.812ZM128.63 84.1295C129.056 86.281 127.658 88.3707 125.506 88.797C123.355 89.2233 121.265 87.8248 120.839 85.6733C120.413 83.5218 121.811 81.4321 123.963 81.0058C126.114 80.5795 128.204 81.978 128.63 84.1295ZM127.743 100.086C129.894 99.6597 131.293 97.57 130.867 95.4185C130.44 93.267 128.351 91.8685 126.199 92.2948C124.048 92.7211 122.649 94.8109 123.075 96.9624C123.502 99.1139 125.592 100.512 127.743 100.086ZM119.483 97.5918C119.909 99.7433 118.51 101.833 116.359 102.259C114.207 102.686 112.118 101.287 111.691 99.1357C111.265 96.9842 112.664 94.8945 114.815 94.4681C116.967 94.0418 119.056 95.4403 119.483 97.5918Z" fill="#100F19"/>
</svg>
