<svg width="251" height="248" viewBox="0 0 251 248" fill="none" xmlns="http://www.w3.org/2000/svg">
<circle cx="126.121" cy="128.694" r="99.6239" fill="#FDCB1E"/>
<path fill-rule="evenodd" clip-rule="evenodd" d="M94.3879 30.281C93.8552 29.1164 92.9013 25.553 93.3475 20.617C93.7936 15.6809 96.3501 14.4552 97.5726 14.4594C98.3179 18.8598 98.7244 28.1846 94.3879 30.281ZM8.06977 94.9712C8.77855 92.7226 10.9644 88.55 14.0376 89.8484C17.1108 91.1468 20.8236 93.5986 22.2959 94.6622L29.0546 93.1199C28.6003 95.2055 28.9144 100.141 33.8058 103.199C38.6972 106.257 42.6417 104.556 44.0026 103.323C45.3798 106.026 48.6894 111.291 50.9096 110.726C52.0478 110.437 52.9244 109.627 53.8186 108.802C55.1048 107.614 56.4272 106.393 58.6162 106.638C61.5848 106.97 63.892 111.501 64.6746 113.725C65.5749 111.999 68.7163 108.891 74.0785 110.269L75.2123 105.666C71.4005 104.311 64.1497 99.7694 65.6416 92.4396L71.2106 98.7648C72.4373 97.5465 75.6674 95.5151 78.7747 97.1358C81.882 98.7564 84.7775 98.6619 85.8368 98.4121C88.3148 97.4664 92.997 94.5455 91.9018 90.4271C90.5329 85.2791 90.5888 82.0144 93.5934 79.6542C95.9971 77.7661 99.6581 80.4947 101.188 82.095C100.732 80.3789 100.279 75.9196 102.118 71.8112C103.957 67.7028 107.311 65.8209 108.759 65.3935C106.05 64.1917 100.081 60.4624 97.881 55.1595C95.6807 49.8566 97.5345 43.1126 98.7364 40.4035L100.818 33.2549C101.539 36.1644 103.041 42.5472 103.283 44.8021C103.526 47.0571 103.07 50.392 102.812 51.7775C104.02 51.6475 106.897 52.6412 108.741 57.6567C111.08 57.9479 116.462 59.7582 119.272 64.6696C122.082 69.581 119.496 73.0637 117.853 74.1911C120.062 73.2744 124.844 72.5423 126.296 76.9481C130.079 78.0344 138.327 79.7263 141.052 77.8035C143.778 75.8807 147.528 76.1558 149.063 76.5338C148.069 74.8756 146.693 71.1677 149.131 69.6017C151.569 68.0357 154.434 70.9317 155.561 72.5755L162.735 67.3224C161.172 66.676 158.22 63.9795 158.919 58.3645C160.152 59.7253 163.512 62.4322 167.09 62.3728C171.563 62.2986 173.018 68.252 171.841 72.4521C170.9 75.8121 163.09 76.9245 159.303 77.0607L161.836 81.6759C163.922 82.1303 168.694 82.567 171.098 80.6789C173.501 78.7907 176.019 75.9399 176.977 74.7505L182.843 72.4896C185.964 71.2032 192.816 67.5055 195.264 63.0056C197.713 58.5057 205.197 53.1106 208.633 50.9756C206.31 54.6201 201.224 62.364 199.465 64.1828C198.81 64.8591 197.39 66.1226 195.654 67.6675C191.553 71.3156 185.689 76.5325 183.983 79.2916C182.04 82.4336 178.482 92.5113 176.945 97.1574C180.098 94.9171 187.434 90.1625 191.553 89.0674C195.671 87.9723 199.931 84.9067 201.545 83.5109C201.403 85.9703 200.661 91.1826 198.832 92.3571C197.003 93.5316 191.829 95.4192 189.471 96.2162C187.613 99.1319 182.331 104.806 176.071 104.176C177.065 105.834 180.368 108.52 185.636 105.998C186.567 108.342 186.854 113.525 180.55 115.507C180.455 117.146 181.275 120.724 185.314 121.919C189.353 123.113 192.675 127.236 193.831 129.148C194.876 128.764 197.395 128.194 199.109 128.987C200.824 129.78 203.326 134.1 204.362 136.161C205.325 133.749 208.277 129.385 212.385 131.224C213.946 131.923 215.181 132.732 216.334 133.488L216.334 133.488C218.973 135.219 221.187 136.67 225.921 135.877C222.216 138.041 214.119 142.036 211.369 140.702C208.993 139.551 205.349 141.064 202.659 142.181C201.456 142.68 200.444 143.101 199.821 143.168C198.211 143.341 192.984 141.46 190.572 140.497C190.742 143.33 190.183 149.745 186.595 152.738C182.11 156.48 181.88 158.134 183.881 161.584C185.482 164.345 192.729 168.1 196.153 169.632L199.207 179.079C197.264 176.166 192.385 170.201 188.416 169.65C184.446 169.1 178.601 166.769 176.175 165.673C174.368 166.546 170.904 168.929 171.504 171.471C172.253 174.649 170.444 180.547 165.067 183.57C160.765 185.988 155.324 181.36 153.142 178.743L148.08 180.918C149.582 182.25 152.581 185.647 152.571 188.581C152.561 191.515 153.827 196.457 154.461 198.561C155.689 201.144 159.076 206.618 162.792 207.847C166.509 209.076 170.04 215.893 171.341 219.147L170.226 231.487C169.873 225.687 167.933 213.974 162.997 213.528C156.827 212.97 152.856 210.139 150.768 205.883C149.098 202.478 149.887 197.695 150.49 195.73C148.136 195.304 142.832 193.458 140.448 189.479C138.064 185.499 131.802 184.843 128.969 185.012L123.964 183.921C123.922 187.32 122.318 194.363 116.232 195.344C110.146 196.326 108.199 190.099 107.987 186.863C105.874 189.942 101.86 197.299 102.702 202.096C103.545 206.894 99.4433 213.445 97.2874 216.122C96.222 213.792 94.1221 207.908 94.2461 203.007C94.3702 198.105 100.745 190.223 103.917 186.894C100.485 187.807 93.5193 187.932 93.1132 181.133C92.3801 181.89 90.261 183.395 87.6492 183.35C85.0374 183.306 83.3024 185.855 82.7613 187.135L81.6342 176.666C79.6684 176.063 75.6623 175.679 75.3649 178.97C75.0674 182.261 69.9504 184.169 67.429 184.713C65.0047 187.418 59.3308 193.487 56.0301 196.123C52.7294 198.76 49.8639 203.169 48.8437 205.044L44.4327 213.258C45.7627 207.955 49.2938 196.36 52.7779 192.4C56.262 188.44 60.181 185.493 61.705 184.514C63.8753 181.972 68.4862 176.371 69.5666 174.299C70.6471 172.227 70.273 168.249 69.9509 166.518C68.6087 166.663 65.6715 167.631 64.6604 170.346C63.6493 173.062 61.0011 176.715 59.8033 178.201L54.3952 177.154C56.2641 175.595 59.889 171.43 59.4382 167.243C58.9873 163.055 63.2731 157.461 65.4724 155.188C64.1488 154.244 61.5586 151.373 61.7867 147.438C62.0148 143.503 66.557 138.777 68.7996 136.907C66.9205 137.109 62.8166 136.573 61.434 132.812C60.0515 129.05 61.775 124.628 62.8096 122.887C60.1107 123.042 54.879 121.867 55.5432 115.93C51.785 116.335 43.7643 115.488 41.7474 108.861C39.0196 108.748 32.724 108.285 29.3639 107.343C26.0038 106.402 24.5486 102.974 24.2409 101.378C19.5558 102.017 9.76231 101.632 8.06977 94.9712ZM30.0484 208.289C33.924 204.939 41.4473 196.879 44.7245 193.267C42.8907 197.674 38.3607 207.557 34.9112 211.839C31.4618 216.121 26.2093 219.293 24.0142 220.344C24.4107 217.722 26.1727 211.639 30.0484 208.289ZM198.262 75.7178C200.955 72.9839 207.111 67.1072 210.194 65.4719C213.277 63.8365 219.941 57.6336 222.888 54.7365L231.759 50.1154C231.573 52.1721 230.215 56.962 226.27 59.6678C222.325 62.3736 217.122 66.7627 215.014 68.619C210.834 70.1552 201.632 73.7257 198.262 75.7178ZM93.5648 134.24C95.7792 134.002 100.694 132.74 102.637 129.598C104.579 126.455 103.989 121.984 103.451 120.141C104.046 120.62 105.644 121.208 107.277 119.729C108.91 118.25 109.743 115.526 109.956 114.349C111.984 114.266 116.268 113.955 117.183 113.367C118.097 112.78 118.229 110.471 118.18 109.39L120.946 104.815L122.238 99.7885C121.858 101.934 121.885 106.344 125.032 106.82C128.179 107.296 131.931 103.43 133.414 101.437C134.023 102.05 135.648 103.274 137.276 103.261C138.904 103.249 141.865 101.749 143.143 101C142.58 102.079 141.915 104.351 143.756 104.804C145.597 105.258 148.833 104.665 150.22 104.312L148.82 108.332L145.729 109.887L144.818 114.67L141.535 120.115C143.169 119.531 146.761 117.963 148.055 116.358C149.348 114.752 150.898 113.132 151.512 112.523C152.215 114.009 153.52 117.562 153.119 119.886C152.717 122.21 157.257 121.749 159.577 121.227L160.054 125.657C159.158 126.16 157.314 127.825 157.108 130.455C156.902 133.084 157.695 135.279 158.118 136.049C156.687 135.999 153.064 136.022 150.021 136.513C146.978 137.003 145.179 140.089 144.659 141.571L140.425 143.86L136.026 148.407C136.922 146.002 137.885 141.078 134.577 140.62C131.269 140.161 122.49 141.853 118.514 142.756L114.834 146.411L111.448 149.016C110.563 148.365 107.965 147.314 104.652 148.322C101.339 149.33 99.6251 151.443 99.1821 152.373C97.7728 152.525 94.3229 153.019 91.7978 153.779C89.2727 154.54 86.5909 157.123 85.5657 158.32C86.7378 155.342 89.87 149.14 93.022 148.148C96.174 147.157 99.6156 142.551 100.942 140.371C99.3534 140.746 95.777 141.579 94.1837 141.913C92.5904 142.248 90.189 143.905 89.1874 144.692C89.1331 141.642 89.9324 135.283 93.5648 134.24Z" fill="#FFD850"/>
<path d="M102.608 118.338C102.359 122.996 105.346 134.904 106.871 140.276C108.327 145.371 106.871 154 103.959 157.639C101.63 160.55 101.117 164.813 101.152 166.581L135.254 158.887L168.006 151.193C166.619 149.079 162.703 144.289 158.128 142.043C152.41 139.236 149.083 125.824 147.523 114.179C145.964 102.534 130.056 96.2956 119.763 98.8949C109.469 101.494 102.92 112.515 102.608 118.338Z" fill="#100F19"/>
<path d="M144.093 160.134L126.937 164.397C128.081 166.165 131.616 169.637 136.607 169.388C141.597 169.138 143.677 163.115 144.093 160.134Z" fill="#100F19"/>
<path d="M119.243 94.7359C117.996 94.8191 114.357 96.5728 112.693 97.4392C112.693 92.3445 115.604 88.9134 119.555 88.6015C122.716 88.352 126.417 92.5871 127.873 94.7359C125.516 94.7012 120.491 94.6527 119.243 94.7359Z" fill="#100F19"/>
<path d="M95.9536 119.897L93.2503 118.338C91.9331 119.585 89.5484 124.014 90.5465 131.75C91.5446 139.486 97.1314 143.984 99.8 145.266L101.879 141.939C100.251 140.38 96.6393 136.512 95.2252 133.518C93.8112 130.523 95.1216 123.19 95.9536 119.897Z" fill="#100F19"/>
<path d="M87.0114 114.491L83.2684 112.515C81.397 116.466 78.1949 126.759 80.3575 136.325C82.5201 145.89 90.4082 152.856 94.0818 155.144L96.6811 151.713C93.5273 149.113 86.7206 142.043 84.7244 134.557C82.7281 127.071 85.4173 118.06 87.0114 114.491Z" fill="#100F19"/>
<path d="M153.763 104.925L151.06 107.421C152.342 107.836 155.447 110.228 157.61 116.466C159.773 122.704 157.61 128.076 156.258 129.982L159.17 131.854C161.076 128.873 164.451 121.602 162.705 116.362C160.958 111.122 156.016 106.554 153.763 104.925Z" fill="#100F19"/>
<path d="M156.05 98.375L157.506 95.4637C170.918 100.87 174.349 113.347 174.038 122.6C173.788 130.003 171.022 135.25 169.671 136.949L166.136 134.661C166.621 133.691 167.716 131.272 168.215 129.359C168.839 126.967 170.191 119.585 166.967 111.579C164.389 105.175 158.615 100.108 156.05 98.375Z" fill="#100F19"/>
</svg>
