<svg width="256" height="249" viewBox="0 0 256 249" fill="none" xmlns="http://www.w3.org/2000/svg">
<circle cx="138.121" cy="124.694" r="99.6239" fill="#FDCB1E"/>
<path d="M71.0973 20.8745L76.0484 22.5039C75.9913 23.9974 76.092 27.2774 76.9516 28.4499C77.8113 29.6224 79.9321 32.9248 80.8851 34.4295C82.9257 36.1883 87.5346 40.2204 89.6447 42.2788C91.7548 44.3372 97.9438 51.6175 100.775 55.0004L105.197 60.6217C105.368 59.6947 106.219 57.9188 108.252 58.2317C110.284 58.5445 110.431 62.0921 110.251 63.8268L112.022 68.0866C112.397 66.9599 113.68 64.8575 115.806 65.4621C117.932 66.0668 118.112 68.8797 117.936 70.2105C118.73 71.4308 120.753 74.094 122.488 74.9852C124.223 75.8764 127.366 79.5211 128.721 81.2321C129.659 80.3941 131.225 78.2544 129.985 76.3993C128.435 74.0805 127.731 71.8919 129.197 70.8174C130.37 69.9577 131.857 71.3713 132.454 72.1855L133.47 67.8347C132.828 63.7486 131.383 54.7024 130.743 51.206C130.102 47.7096 131.567 38.5334 132.379 34.3824C132.813 39.0719 133.723 48.9604 133.895 50.9978C134.067 53.0352 135.26 59.2112 135.835 62.0445L135.86 70.8896C137.319 70.4207 139.988 70.0862 138.993 72.4986C137.997 74.9111 136.893 79.9475 136.465 82.1641C137.974 80.8073 141.181 78.5562 141.936 80.4061C142.692 82.2559 144.86 86.3747 145.85 88.2028C146.664 87.6059 148.847 86.636 151.067 87.5325C153.287 88.4289 155.492 85.44 156.317 83.8334C155.486 82.2897 154 78.5014 154.709 75.6982C155.418 72.8949 160.767 72.0079 163.353 71.9148C163.574 73.8558 163.893 77.9787 163.398 78.9427C162.902 79.9066 163.647 82.0148 164.081 82.9484C165.405 83.7301 168.305 84.4482 169.311 81.0666C170.569 76.8396 170.25 72.7166 170.628 71.3879C171.006 70.0593 173.742 63.5463 179.07 63.8464C183.332 64.0865 185.826 66.5045 186.54 67.6834C184.888 67.3424 181.262 67.2869 179.975 69.7931C178.366 72.9258 177.61 75.5832 181.081 79.498C183.858 82.6299 186.15 85.0456 186.949 85.862L181.823 89.3201C182.454 90.6597 183.424 93.5539 182.252 94.4135C180.786 95.4881 178.357 96.0675 176.416 96.2888C174.863 96.4658 173.072 99.2411 172.371 100.607C174.316 99.9816 178.471 98.9282 179.529 99.7151C180.587 100.502 183.47 97.5769 184.779 96.016C187.337 94.7918 192.818 92.105 194.282 91.1515C196.113 89.9598 205.271 83.3953 207.108 81.5978C208.577 80.1598 212.927 77.5819 214.918 76.4726L222.35 72.6763C219.859 75.1533 214.464 80.3209 212.807 81.1753C211.15 82.0296 206.901 85.7557 204.984 87.5119L195.949 93.8354L190.087 98.1336C190.039 98.8197 189.77 100.529 189.077 101.879C188.384 103.228 185.675 106.527 184.406 108.007C186.389 107.706 190.846 106.381 192.816 103.494C194.785 100.608 199.047 102.431 200.931 103.704C206.322 101.904 217.959 97.7091 221.377 95.3229C224.795 92.9368 234.382 91.5465 238.748 91.1496C232.619 93.991 219.363 100.075 215.371 101.679C211.38 103.284 207.685 106.564 206.337 108.003L202.943 108.087C202.941 108.289 202.421 109.342 200.357 111.936C197.778 115.18 195.876 111.767 194.749 115.147C193.622 118.527 194.937 120.116 191.668 119.96C189.052 119.834 187.603 118.583 187.206 117.973L184.6 123.639C186.222 123.051 190.068 122.244 192.475 123.725C194.882 125.205 197.815 126.569 198.981 127.067C197.77 127.053 194.857 127.506 192.898 129.424C190.938 131.341 189.211 134.23 188.592 135.435C189.918 136.015 192.808 137.662 193.756 139.611C194.705 141.559 193.126 145.581 192.219 147.348C194.277 147.492 198.896 148.341 200.907 150.593C203.421 153.407 208.331 158.67 209.653 159.653C210.711 160.44 214.254 163.742 215.893 165.295C213.394 164.823 208.109 163.49 206.963 161.926C205.53 159.972 199.168 154.572 197.839 154.194C196.776 153.892 189.437 150.589 185.901 148.976L182.565 154.877L182.76 159.241C183.522 159.733 185.114 161.18 185.385 163.025C185.723 165.331 183.502 169.063 185.065 170.17C186.628 171.277 191.069 175.082 192.118 178.97C192.956 182.081 196.765 186.129 198.565 187.764L203.248 191.692C202.032 192.082 198.783 192.201 195.517 189.548C192.25 186.896 188.025 180.218 186.321 177.211L181.619 175.1L178.583 175.673C177.989 174.657 176.468 171.846 175.145 168.73C173.822 165.614 171.008 162.95 169.766 162.007C170.078 162.98 169.947 165.45 166.919 167.55C163.891 169.65 159.27 169.002 157.338 168.415C156.841 169.581 155.219 171.591 152.713 170.304C150.207 169.016 149.529 166.028 149.503 164.695L143.549 166.206C144.958 166.625 147.601 168.043 146.897 170.362C146.193 172.68 142.539 173.707 140.8 173.93C140.752 174.616 140.315 176.179 138.95 176.939C137.585 177.7 135.858 179.006 135.166 179.564C136.455 179.82 138.714 180.838 137.432 182.86C135.829 185.387 133.491 188.754 131.504 193.215C129.517 197.677 128.24 203.721 127.718 207.108C127.301 209.817 126.341 214.928 125.913 217.145L122.467 222.075C123.386 219.298 125.038 212.919 124.298 209.615C123.374 205.486 125.811 193.032 126.691 190.134C127.394 187.815 130.962 179.841 132.658 176.144C131.358 176.897 128.16 177.549 125.774 174.131C123.388 170.712 122.601 165.09 122.505 162.706C120.766 162.93 117.223 162.673 116.963 159.859C116.703 157.046 119.629 156.052 121.125 155.906C121.457 155.062 122.487 153.255 123.946 152.787L129.052 151.146C127.797 151.415 124.931 151.343 123.503 148.905L119.935 142.808L118.69 145.823C117.205 144.959 114.036 143.737 113.239 145.764C112.441 147.791 111.095 149.739 110.522 150.46C108.829 150.199 104.933 149.721 102.895 149.893C100.858 150.064 98.6419 151.058 97.7886 151.534L101.013 144.662C99.6109 143.637 96.0739 142.064 93.1453 143.971C90.2168 145.878 87.3918 145.686 86.3453 145.351L80.8094 141.899C79.2156 143.618 75.3052 146.685 72.4134 145.2C68.7987 143.344 64.4743 139.904 59.2373 142.392C54.0004 144.879 45.8652 146.487 43.566 146.22C41.7267 146.006 37.9538 146.078 36.2972 146.141C42.8997 144.355 57.1507 140.406 61.335 138.901C65.5192 137.395 76.7741 134.141 81.8785 132.702C82.0935 131.493 83.2518 128.961 86.1646 128.508C89.0774 128.055 91.6509 129.093 92.5736 129.668C93.0774 127.896 94.7417 124.142 97.368 123.298C99.9942 122.455 101.632 121.123 102.123 120.563C101.441 120.112 99.6415 119.228 97.8959 119.306C96.1504 119.384 92.9697 119.212 91.5976 119.116C92.5834 117.592 95.3067 114.504 98.3133 114.343C101.32 114.182 103.187 115.527 103.745 116.219L105.934 115.516L109.887 119.678C110.873 118.154 113.742 115.019 117.332 114.67C120.922 114.322 124.082 114.178 125.213 114.15C124.869 113.573 124.709 112.246 126.09 110.776C125.016 110.964 123.123 111.177 121.006 111.075C117.736 110.919 113.118 112.201 114.721 109.674C116.003 107.653 119.667 104.195 121.339 102.719C119.283 102.373 114.875 102.14 113.692 103.969C112.213 106.255 110.259 107.687 108.325 107.303C106.777 106.995 104.636 104.799 103.759 103.74C103.408 102.645 102.319 100.259 100.777 99.4667C99.2345 98.6745 97.3161 98.2983 96.5497 98.2092C97.9306 97.4972 101.634 96.3743 105.401 97.5783C105.775 96.6534 107.346 94.74 110.645 94.485C113.943 94.23 115.992 92.9679 116.605 92.3687C114.629 92.0646 110.398 90.4597 109.278 86.4735C108.158 82.4873 111.947 78.7078 113.981 77.3163C111.361 73.128 105.373 64.4283 102.383 63.1357C99.3918 61.8432 92.6137 51.5194 89.5986 46.5191C86.1643 42.9278 78.9361 35.3778 77.4981 33.9082C75.7006 32.0713 69.1107 25.3359 71.0973 20.8745Z" fill="#FFDD66"/>
<path d="M162.728 62.4577C160.107 62.817 158.544 64.674 158.09 65.5576C162.113 70.06 165.75 66.8523 167.066 64.6857C166.712 63.7933 165.349 62.0984 162.728 62.4577Z" fill="#FFDD66"/>
<path d="M90.6676 104.325L97.6758 106.097L88.7004 106.969C87.5236 107.481 84.8105 108.138 83.3725 106.669C81.575 104.832 78.5595 103.587 75.5308 103.555C73.1079 103.528 64.8471 101.823 61.0195 100.974L66.1195 99.9388C68.2993 100.043 73.1916 100.282 75.3227 100.402C77.9866 100.552 80.3055 99.0022 83.8227 98.6769C86.6365 98.4167 89.5584 102.334 90.6676 104.325Z" fill="#FFDD66"/>
<path d="M81.9803 156.814C82.9653 155.371 85.7126 155.28 86.9631 155.414C86.9368 157.837 84.898 159.633 83.8819 160.227C82.8376 159.691 80.9954 158.258 81.9803 156.814Z" fill="#FFDD66"/>
<path d="M114.75 85.8449C117.932 86.657 122.679 91.353 124.655 93.5995C128.759 92.5818 139.369 91.5805 144.161 91.2071C144.94 90.4212 146.781 88.5218 147.908 87.2119C149.034 85.902 155.049 80.6632 157.916 78.2075C156.37 74.2415 151.562 70.8123 149.352 69.5934C144.252 72.3993 138.86 70.374 137.033 68.82C135.571 67.5768 132.13 67.2714 130.593 67.274C130.151 67.8162 128.697 69.2319 126.411 70.5575C123.553 72.2146 118.163 72.154 115.581 72.6641C113.516 73.0721 114.477 75.3152 115.216 76.3858C114.224 76.8578 111.733 78.2275 109.701 79.9298C107.669 81.6321 107.733 83.8052 108.019 84.679C108.936 84.7293 111.568 85.0328 114.75 85.8449Z" fill="#100F19"/>
<path d="M135.709 93.8555C135.096 93.8678 128.214 95.5523 124.851 96.393C125.555 99.8033 126.556 100.27 128.269 100.301C129.639 100.326 139.862 98.8061 144.803 98.043L144.401 94.3366C141.759 94.1711 136.323 93.8432 135.709 93.8555Z" fill="#100F19"/>
<path d="M145.096 99.6276L126.5 103.096L123.278 105.229C118.749 109.127 109.234 117.856 107.4 121.583C105.107 126.241 105.626 141.893 105.641 142.66C105.654 143.273 106.795 155.124 107.364 160.973C106.697 161.744 105.24 163.661 104.754 165.161C104.267 166.66 104.443 169.73 104.591 171.077L99.5824 176.519C100.379 177.383 102.495 178.922 104.583 178.169C106.672 177.416 111.409 175.934 113.517 175.286C121.409 174.876 138.066 173.821 141.566 172.882C145.939 171.709 176.831 166.881 181.239 167.925C185.648 168.969 189.795 166.716 190.009 165.748C190.224 164.78 184.655 161.41 183.559 160.871C182.463 160.332 183.246 157.837 181.918 155.533C180.856 153.691 178.522 151.793 177.487 151.075C175.616 140.955 171.244 119.686 168.722 115.575C166.199 111.464 151.921 103.23 145.096 99.6276Z" fill="#100F19"/>
<path d="M137.963 151.349C137.728 151.349 137.536 151.274 137.387 151.125C137.238 150.975 137.163 150.783 137.163 150.549V148.341C135.52 148.127 134.144 147.711 133.035 147.093C131.947 146.474 131.126 145.727 130.571 144.853C130.016 143.957 129.718 143.018 129.675 142.037C129.675 141.866 129.739 141.717 129.867 141.589C130.016 141.439 130.187 141.365 130.379 141.365H134.411C134.71 141.365 134.934 141.418 135.083 141.525C135.232 141.631 135.382 141.77 135.531 141.941C135.702 142.261 135.936 142.57 136.235 142.869C136.555 143.167 136.96 143.413 137.451 143.605C137.963 143.775 138.592 143.861 139.339 143.861C140.576 143.861 141.504 143.669 142.123 143.285C142.763 142.901 143.083 142.378 143.083 141.717C143.083 141.247 142.912 140.863 142.571 140.565C142.23 140.245 141.675 139.967 140.907 139.733C140.16 139.477 139.158 139.221 137.899 138.965C136.278 138.623 134.891 138.186 133.739 137.653C132.608 137.098 131.744 136.383 131.147 135.509C130.55 134.613 130.251 133.503 130.251 132.181C130.251 130.474 130.859 129.023 132.075 127.829C133.312 126.634 135.008 125.887 137.163 125.589V123.349C137.163 123.114 137.238 122.922 137.387 122.773C137.536 122.623 137.728 122.549 137.963 122.549H140.619C140.832 122.549 141.014 122.623 141.163 122.773C141.334 122.922 141.419 123.114 141.419 123.349V125.653C142.891 125.909 144.128 126.367 145.131 127.029C146.134 127.69 146.891 128.437 147.403 129.269C147.936 130.101 148.214 130.901 148.235 131.669C148.235 131.839 148.171 131.999 148.043 132.149C147.915 132.277 147.755 132.341 147.563 132.341H143.339C143.104 132.341 142.902 132.298 142.731 132.213C142.56 132.127 142.411 131.989 142.283 131.797C142.155 131.327 141.814 130.922 141.259 130.581C140.704 130.218 139.99 130.037 139.115 130.037C138.198 130.037 137.472 130.207 136.939 130.549C136.406 130.869 136.139 131.37 136.139 132.053C136.139 132.479 136.278 132.853 136.555 133.173C136.854 133.493 137.344 133.77 138.027 134.005C138.71 134.239 139.638 134.485 140.811 134.741C142.752 135.103 144.32 135.562 145.515 136.117C146.71 136.65 147.584 137.354 148.139 138.229C148.694 139.082 148.971 140.159 148.971 141.461C148.971 142.719 148.651 143.829 148.011 144.789C147.392 145.749 146.518 146.527 145.387 147.125C144.256 147.722 142.934 148.117 141.419 148.309V150.549C141.419 150.783 141.334 150.975 141.163 151.125C141.014 151.274 140.832 151.349 140.619 151.349H137.963Z" fill="#FDCB1E"/>
<circle cx="170.352" cy="87.4143" r="5.05197" fill="#100F19"/>
<circle cx="91.7362" cy="125.618" r="6.94611" fill="#100F19"/>
</svg>
