<svg width="200" height="200" viewBox="0 0 200 200" fill="none" xmlns="http://www.w3.org/2000/svg">
<circle cx="100.121" cy="99.6943" r="99.6239" fill="#FDCB1E"/>
<path d="M47.4004 95.3737C45.2671 95.3737 43.4964 95.075 42.0884 94.4777C40.6804 93.859 39.6137 93.059 38.8884 92.0777C38.1631 91.0964 37.7791 90.051 37.7364 88.9417C37.7364 88.771 37.8004 88.6217 37.9284 88.4937C38.0777 88.3444 38.2484 88.2697 38.4404 88.2697H42.4724C42.7711 88.2697 42.9951 88.323 43.1444 88.4297C43.3151 88.5364 43.4644 88.675 43.5924 88.8457C43.7631 89.1657 43.9977 89.475 44.2964 89.7737C44.6164 90.0724 45.0217 90.3177 45.5124 90.5097C46.0244 90.6804 46.6537 90.7657 47.4004 90.7657C48.6377 90.7657 49.5657 90.5737 50.1844 90.1897C50.8244 89.8057 51.1444 89.283 51.1444 88.6217C51.1444 88.1524 50.9737 87.7684 50.6324 87.4697C50.2911 87.1497 49.7364 86.8724 48.9684 86.6377C48.2217 86.3817 47.2191 86.1257 45.9604 85.8697C44.3391 85.5284 42.9524 85.091 41.8004 84.5577C40.6697 84.003 39.8057 83.2884 39.2084 82.4137C38.6111 81.5177 38.3124 80.4084 38.3124 79.0857C38.3124 77.7844 38.6751 76.6217 39.4004 75.5977C40.1471 74.5737 41.1817 73.7737 42.5044 73.1977C43.8271 72.6217 45.3951 72.3337 47.2084 72.3337C48.6804 72.3337 49.9711 72.5257 51.0804 72.9097C52.2111 73.2937 53.1604 73.8057 53.9284 74.4457C54.6964 75.0857 55.2724 75.7684 55.6564 76.4937C56.0617 77.1977 56.2751 77.891 56.2964 78.5737C56.2964 78.7444 56.2324 78.9044 56.1044 79.0537C55.9764 79.1817 55.8164 79.2457 55.6244 79.2457H51.4004C51.1657 79.2457 50.9631 79.203 50.7924 79.1177C50.6217 79.0324 50.4724 78.8937 50.3444 78.7017C50.2164 78.2324 49.8751 77.827 49.3204 77.4857C48.7871 77.123 48.0831 76.9417 47.2084 76.9417C46.2697 76.9417 45.5337 77.1124 45.0004 77.4537C44.4884 77.7737 44.2324 78.275 44.2324 78.9577C44.2324 79.3844 44.3711 79.7577 44.6484 80.0777C44.9471 80.3977 45.4271 80.675 46.0884 80.9097C46.7711 81.1444 47.6991 81.3897 48.8724 81.6457C50.8137 82.0084 52.3817 82.467 53.5764 83.0217C54.7711 83.555 55.6457 84.259 56.2004 85.1337C56.7551 85.987 57.0324 87.0644 57.0324 88.3657C57.0324 89.8164 56.6164 91.075 55.7844 92.1417C54.9737 93.187 53.8431 93.987 52.3924 94.5417C50.9417 95.0964 49.2777 95.3737 47.4004 95.3737ZM61.0359 95.0537C60.8012 95.0537 60.6092 94.979 60.4599 94.8297C60.3106 94.6804 60.2359 94.4884 60.2359 94.2537V73.4537C60.2359 73.219 60.3106 73.027 60.4599 72.8777C60.6092 72.7284 60.8012 72.6537 61.0359 72.6537H75.9799C76.2146 72.6537 76.4066 72.7284 76.5559 72.8777C76.7052 73.027 76.7799 73.219 76.7799 73.4537V76.4617C76.7799 76.6964 76.7052 76.8884 76.5559 77.0377C76.4066 77.187 76.2146 77.2617 75.9799 77.2617H65.7719V81.5817H75.2759C75.5106 81.5817 75.7026 81.667 75.8519 81.8377C76.0012 81.987 76.0759 82.179 76.0759 82.4137V85.1977C76.0759 85.411 76.0012 85.603 75.8519 85.7737C75.7026 85.923 75.5106 85.9977 75.2759 85.9977H65.7719V90.4457H76.2359C76.4706 90.4457 76.6626 90.5204 76.8119 90.6697C76.9612 90.819 77.0359 91.011 77.0359 91.2457V94.2537C77.0359 94.4884 76.9612 94.6804 76.8119 94.8297C76.6626 94.979 76.4706 95.0537 76.2359 95.0537H61.0359ZM89.6699 95.3737C87.6432 95.3737 85.9046 95.043 84.4539 94.3817C83.0246 93.7204 81.9046 92.7497 81.0939 91.4697C80.3046 90.1897 79.8672 88.6004 79.7819 86.7017C79.7606 85.827 79.7499 84.8884 79.7499 83.8857C79.7499 82.883 79.7606 81.923 79.7819 81.0057C79.8672 79.1497 80.3152 77.5817 81.1259 76.3017C81.9366 75.0004 83.0672 74.019 84.5179 73.3577C85.9686 72.675 87.6859 72.3337 89.6699 72.3337C91.0779 72.3337 92.3792 72.515 93.5739 72.8777C94.7686 73.219 95.8139 73.731 96.7099 74.4137C97.6059 75.075 98.2992 75.8857 98.7899 76.8457C99.3019 77.7844 99.5686 78.851 99.5899 80.0457C99.6112 80.2377 99.5472 80.3977 99.3979 80.5257C99.2699 80.6537 99.1099 80.7177 98.9179 80.7177H94.5979C94.3206 80.7177 94.1072 80.6644 93.9579 80.5577C93.8086 80.4297 93.6806 80.2057 93.5739 79.8857C93.2752 78.755 92.7846 77.987 92.1019 77.5817C91.4406 77.155 90.6192 76.9417 89.6379 76.9417C88.4646 76.9417 87.5366 77.2724 86.8539 77.9337C86.1712 78.5737 85.7979 79.651 85.7339 81.1657C85.6699 82.915 85.6699 84.707 85.7339 86.5417C85.7979 88.0564 86.1712 89.1444 86.8539 89.8057C87.5366 90.4457 88.4646 90.7657 89.6379 90.7657C90.6192 90.7657 91.4512 90.5524 92.1339 90.1257C92.8166 89.699 93.2966 88.931 93.5739 87.8217C93.6592 87.5017 93.7766 87.2884 93.9259 87.1817C94.0966 87.0537 94.3206 86.9897 94.5979 86.9897H98.9179C99.1099 86.9897 99.2699 87.0537 99.3979 87.1817C99.5472 87.3097 99.6112 87.4697 99.5899 87.6617C99.5686 88.8564 99.3019 89.9337 98.7899 90.8937C98.2992 91.8324 97.6059 92.643 96.7099 93.3257C95.8139 93.987 94.7686 94.499 93.5739 94.8617C92.3792 95.203 91.0779 95.3737 89.6699 95.3737ZM103.755 95.0537C103.52 95.0537 103.328 94.979 103.179 94.8297C103.029 94.6804 102.955 94.4884 102.955 94.2537V73.4537C102.955 73.219 103.029 73.027 103.179 72.8777C103.328 72.7284 103.52 72.6537 103.755 72.6537H112.459C115.211 72.6537 117.376 73.2937 118.955 74.5737C120.555 75.8324 121.355 77.6244 121.355 79.9497C121.355 81.4644 120.981 82.7444 120.235 83.7897C119.509 84.835 118.549 85.6244 117.355 86.1577L121.771 94.0297C121.835 94.1577 121.867 94.275 121.867 94.3817C121.867 94.5524 121.792 94.7124 121.643 94.8617C121.515 94.9897 121.355 95.0537 121.163 95.0537H116.939C116.533 95.0537 116.235 94.9577 116.043 94.7657C115.851 94.5524 115.712 94.3604 115.627 94.1897L111.979 87.1497H108.683V94.2537C108.683 94.4884 108.608 94.6804 108.459 94.8297C108.309 94.979 108.117 95.0537 107.883 95.0537H103.755ZM108.683 82.6377H112.395C113.397 82.6377 114.144 82.3924 114.635 81.9017C115.147 81.411 115.403 80.739 115.403 79.8857C115.403 79.0537 115.157 78.3817 114.667 77.8697C114.197 77.3577 113.44 77.1017 112.395 77.1017H108.683V82.6377ZM125.88 95.0537C125.645 95.0537 125.453 94.979 125.304 94.8297C125.154 94.6804 125.08 94.4884 125.08 94.2537V73.4537C125.08 73.219 125.154 73.027 125.304 72.8777C125.453 72.7284 125.645 72.6537 125.88 72.6537H140.824C141.058 72.6537 141.25 72.7284 141.4 72.8777C141.549 73.027 141.624 73.219 141.624 73.4537V76.4617C141.624 76.6964 141.549 76.8884 141.4 77.0377C141.25 77.187 141.058 77.2617 140.824 77.2617H130.616V81.5817H140.12C140.354 81.5817 140.546 81.667 140.696 81.8377C140.845 81.987 140.92 82.179 140.92 82.4137V85.1977C140.92 85.411 140.845 85.603 140.696 85.7737C140.546 85.923 140.354 85.9977 140.12 85.9977H130.616V90.4457H141.08C141.314 90.4457 141.506 90.5204 141.656 90.6697C141.805 90.819 141.88 91.011 141.88 91.2457V94.2537C141.88 94.4884 141.805 94.6804 141.656 94.8297C141.506 94.979 141.314 95.0537 141.08 95.0537H125.88ZM151.245 95.0537C151.01 95.0537 150.818 94.979 150.669 94.8297C150.52 94.6804 150.445 94.4884 150.445 94.2537V77.6777H144.749C144.514 77.6777 144.322 77.603 144.173 77.4537C144.024 77.283 143.949 77.091 143.949 76.8777V73.4537C143.949 73.219 144.024 73.027 144.173 72.8777C144.322 72.7284 144.514 72.6537 144.749 72.6537H161.965C162.2 72.6537 162.392 72.7284 162.541 72.8777C162.69 73.027 162.765 73.219 162.765 73.4537V76.8777C162.765 77.091 162.69 77.283 162.541 77.4537C162.392 77.603 162.2 77.6777 161.965 77.6777H156.269V94.2537C156.269 94.4884 156.194 94.6804 156.045 94.8297C155.896 94.979 155.704 95.0537 155.469 95.0537H151.245ZM57.3173 133.054C57.1039 133.054 56.9333 132.99 56.8053 132.862C56.6773 132.734 56.6133 132.563 56.6133 132.35V111.358C56.6133 111.144 56.6773 110.974 56.8053 110.846C56.9333 110.718 57.1039 110.654 57.3173 110.654H57.9253C58.1386 110.654 58.3093 110.718 58.4373 110.846C58.5653 110.974 58.6293 111.144 58.6293 111.358V131.134H69.6693C69.9039 131.134 70.0853 131.198 70.2133 131.326C70.3413 131.454 70.4053 131.635 70.4053 131.87V132.35C70.4053 132.563 70.3413 132.734 70.2133 132.862C70.0853 132.99 69.9039 133.054 69.6693 133.054H57.3173ZM74.8485 133.054C74.6352 133.054 74.4645 132.99 74.3365 132.862C74.2085 132.734 74.1445 132.563 74.1445 132.35V111.39C74.1445 111.155 74.2085 110.974 74.3365 110.846C74.4645 110.718 74.6352 110.654 74.8485 110.654H87.3285C87.5632 110.654 87.7445 110.718 87.8725 110.846C88.0005 110.974 88.0645 111.155 88.0645 111.39V111.87C88.0645 112.083 88.0005 112.254 87.8725 112.382C87.7445 112.51 87.5632 112.574 87.3285 112.574H76.1605V120.734H86.6245C86.8592 120.734 87.0405 120.798 87.1685 120.926C87.2965 121.054 87.3605 121.235 87.3605 121.47V121.95C87.3605 122.163 87.2965 122.334 87.1685 122.462C87.0405 122.59 86.8592 122.654 86.6245 122.654H76.1605V131.134H87.5845C87.8192 131.134 88.0005 131.198 88.1285 131.326C88.2565 131.454 88.3205 131.635 88.3205 131.87V132.35C88.3205 132.563 88.2565 132.734 88.1285 132.862C88.0005 132.99 87.8192 133.054 87.5845 133.054H74.8485ZM99.5215 133.054C99.2442 133.054 99.0202 132.99 98.8495 132.862C98.6789 132.734 98.5402 132.542 98.4335 132.286L91.0095 111.646C90.9669 111.518 90.9455 111.4 90.9455 111.294C90.9455 111.123 91.0095 110.974 91.1375 110.846C91.2655 110.718 91.4149 110.654 91.5855 110.654H92.2575C92.4709 110.654 92.6309 110.718 92.7375 110.846C92.8655 110.952 92.9402 111.048 92.9615 111.134L99.9695 130.718L106.978 111.134C107.02 111.048 107.095 110.952 107.202 110.846C107.308 110.718 107.468 110.654 107.682 110.654H108.354C108.524 110.654 108.674 110.718 108.802 110.846C108.93 110.974 108.994 111.123 108.994 111.294C108.994 111.4 108.972 111.518 108.93 111.646L101.506 132.286C101.42 132.542 101.292 132.734 101.122 132.862C100.951 132.99 100.716 133.054 100.418 133.054H99.5215ZM113.88 133.054C113.666 133.054 113.496 132.99 113.368 132.862C113.24 132.734 113.176 132.563 113.176 132.35V111.39C113.176 111.155 113.24 110.974 113.368 110.846C113.496 110.718 113.666 110.654 113.88 110.654H126.36C126.594 110.654 126.776 110.718 126.904 110.846C127.032 110.974 127.096 111.155 127.096 111.39V111.87C127.096 112.083 127.032 112.254 126.904 112.382C126.776 112.51 126.594 112.574 126.36 112.574H115.192V120.734H125.656C125.89 120.734 126.072 120.798 126.2 120.926C126.328 121.054 126.392 121.235 126.392 121.47V121.95C126.392 122.163 126.328 122.334 126.2 122.462C126.072 122.59 125.89 122.654 125.656 122.654H115.192V131.134H126.616C126.85 131.134 127.032 131.198 127.16 131.326C127.288 131.454 127.352 131.635 127.352 131.87V132.35C127.352 132.563 127.288 132.734 127.16 132.862C127.032 132.99 126.85 133.054 126.616 133.054H113.88ZM132.817 133.054C132.604 133.054 132.433 132.99 132.305 132.862C132.177 132.734 132.113 132.563 132.113 132.35V111.358C132.113 111.144 132.177 110.974 132.305 110.846C132.433 110.718 132.604 110.654 132.817 110.654H133.425C133.639 110.654 133.809 110.718 133.937 110.846C134.065 110.974 134.129 111.144 134.129 111.358V131.134H145.169C145.404 131.134 145.585 131.198 145.713 131.326C145.841 131.454 145.905 131.635 145.905 131.87V132.35C145.905 132.563 145.841 132.734 145.713 132.862C145.585 132.99 145.404 133.054 145.169 133.054H132.817Z" fill="#0F121B"/>
<path d="M94.789 171.933L90.4209 152.93L111.911 155.062L105.714 162.33L116.583 171.365L109.99 177.356L100.053 166.945L94.789 171.933Z" fill="#0F121B"/>
</svg>
