<svg width="22" height="21" viewBox="0 0 22 21" fill="none" xmlns="http://www.w3.org/2000/svg">
<path opacity="0.7" fill-rule="evenodd" clip-rule="evenodd" d="M5.29046 13.0033L0.557305 10.9503C0.139088 10.5512 -0.355184 9.55889 1.01346 8.78333C2.38211 8.00776 14.1297 3.02359 19.8324 0.62845C20.3267 0.438371 21.4292 0.377563 21.8854 1.65497L18.7489 19.6184C18.2547 20.1887 16.9355 21.1011 15.6124 20.1887L12.476 17.2233C12.1148 17.1663 11.2556 17.1777 10.7081 17.6795C10.1607 18.1814 9.30145 19.3333 8.94028 19.8465C8.50308 19.9416 7.4918 19.7781 6.94434 18.3638C6.39688 16.9496 5.95587 14.581 5.8038 13.5736L5.29046 13.0033ZM8.3701 15.9688L7.34349 11.9768L17.7794 3.93605L9.51054 13.0604L8.3701 15.9688Z"/>
</svg>
