<svg width="26" height="21" viewBox="0 0 26 21" fill="none" xmlns="http://www.w3.org/2000/svg">
<path opacity="0.7" d="M12.4011 6.88744C6.56151 6.84183 3.08674 3.48481 2.0793 1.81201C0.801942 5.18798 2.45946 7.59075 3.44789 8.37014L0.995731 7.91393C1.3607 10.2406 3.77104 12.267 4.93059 12.9893L2.82059 13.1034C3.77865 15.0195 5.91906 16.2209 6.86951 16.582C6.28023 16.8862 4.96481 17.5401 4.41735 17.7226C3.86989 17.9051 1.75606 18.4069 0.767578 18.635C4.1892 20.1177 7.49676 20.5169 11.0895 20.0036C14.6822 19.4904 18.7311 16.9812 20.2708 13.9018C21.5026 11.4382 21.8866 7.62879 21.9246 6.03204C22.3048 5.956 23.1792 5.7469 23.6354 5.51879C24.0916 5.29069 24.89 4.35924 25.2322 3.92204L22.6089 3.69393L24.5478 1.2988L20.8981 1.98312L19.3013 1.12771C18.2939 0.823566 15.8455 0.55744 14.1119 1.92609C12.3783 3.29473 12.249 5.80393 12.4011 6.88744Z"/>
</svg>
